solid OpenSCAD_Model
  facet normal -0.760433 -0.649417 0
    outer loop
      vertex -40.1276 -22.6276 0
      vertex -40.953 -21.6611 15
      vertex -40.953 -21.6611 0
    endloop
  endfacet
  facet normal -0.760433 -0.649417 0
    outer loop
      vertex -40.953 -21.6611 15
      vertex -40.1276 -22.6276 0
      vertex -40.1276 -22.6276 15
    endloop
  endfacet
  facet normal -0.852624 -0.522525 0
    outer loop
      vertex -40.953 -21.6611 0
      vertex -41.6172 -20.5773 15
      vertex -41.6172 -20.5773 0
    endloop
  endfacet
  facet normal -0.852624 -0.522525 0
    outer loop
      vertex -41.6172 -20.5773 15
      vertex -40.953 -21.6611 0
      vertex -40.953 -21.6611 15
    endloop
  endfacet
  facet normal -0.233435 -0.972372 0
    outer loop
      vertex -36.903 -24.6036 0
      vertex -35.6671 -24.9003 15
      vertex -36.903 -24.6036 15
    endloop
  endfacet
  facet normal -0.233435 -0.972372 -0
    outer loop
      vertex -35.6671 -24.9003 15
      vertex -36.903 -24.6036 0
      vertex -35.6671 -24.9003 0
    endloop
  endfacet
  facet normal -0.649417 -0.760433 0
    outer loop
      vertex -40.1276 -22.6276 0
      vertex -39.1611 -23.453 15
      vertex -40.1276 -22.6276 15
    endloop
  endfacet
  facet normal -0.649417 -0.760433 -0
    outer loop
      vertex -39.1611 -23.453 15
      vertex -40.1276 -22.6276 0
      vertex -39.1611 -23.453 0
    endloop
  endfacet
  facet normal -0.382676 -0.923883 0
    outer loop
      vertex -38.0773 -24.1172 0
      vertex -36.903 -24.6036 15
      vertex -38.0773 -24.1172 15
    endloop
  endfacet
  facet normal -0.382676 -0.923883 -0
    outer loop
      vertex -36.903 -24.6036 15
      vertex -38.0773 -24.1172 0
      vertex -36.903 -24.6036 0
    endloop
  endfacet
  facet normal -0.522525 0.852624 0
    outer loop
      vertex -38.0773 24.1172 0
      vertex -39.1611 23.453 15
      vertex -38.0773 24.1172 15
    endloop
  endfacet
  facet normal -0.522525 0.852624 0
    outer loop
      vertex -39.1611 23.453 15
      vertex -38.0773 24.1172 0
      vertex -39.1611 23.453 0
    endloop
  endfacet
  facet normal -0.0784473 -0.996918 0
    outer loop
      vertex -35.6671 -24.9003 0
      vertex -34.4001 -25 15
      vertex -35.6671 -24.9003 15
    endloop
  endfacet
  facet normal -0.0784473 -0.996918 -0
    outer loop
      vertex -34.4001 -25 15
      vertex -35.6671 -24.9003 0
      vertex -34.4001 -25 0
    endloop
  endfacet
  facet normal -0.522525 -0.852624 0
    outer loop
      vertex -39.1611 -23.453 0
      vertex -38.0773 -24.1172 15
      vertex -39.1611 -23.453 15
    endloop
  endfacet
  facet normal -0.522525 -0.852624 -0
    outer loop
      vertex -38.0773 -24.1172 15
      vertex -39.1611 -23.453 0
      vertex -38.0773 -24.1172 0
    endloop
  endfacet
  facet normal -1 0 0
    outer loop
      vertex -42.5 -16.9001 0
      vertex -42.5 16.9001 15
      vertex -42.5 16.9001 0
    endloop
  endfacet
  facet normal -1 -0 0
    outer loop
      vertex -42.5 16.9001 15
      vertex -42.5 -16.9001 0
      vertex -42.5 -16.9001 15
    endloop
  endfacet
  facet normal -0.923883 0.382676 0
    outer loop
      vertex -42.1036 19.403 0
      vertex -41.6172 20.5773 15
      vertex -41.6172 20.5773 0
    endloop
  endfacet
  facet normal -0.923883 0.382676 0
    outer loop
      vertex -41.6172 20.5773 15
      vertex -42.1036 19.403 0
      vertex -42.1036 19.403 15
    endloop
  endfacet
  facet normal -0.382676 0.923883 0
    outer loop
      vertex -36.903 24.6036 0
      vertex -38.0773 24.1172 15
      vertex -36.903 24.6036 15
    endloop
  endfacet
  facet normal -0.382676 0.923883 0
    outer loop
      vertex -38.0773 24.1172 15
      vertex -36.903 24.6036 0
      vertex -38.0773 24.1172 0
    endloop
  endfacet
  facet normal 0 -1 0
    outer loop
      vertex -34.4001 -25 0
      vertex -2.5 -25 15
      vertex -34.4001 -25 15
    endloop
  endfacet
  facet normal 0 -1 -0
    outer loop
      vertex -2.5 -25 15
      vertex -34.4001 -25 0
      vertex -2.5 -25 0
    endloop
  endfacet
  facet normal -0.996918 -0.0784473 0
    outer loop
      vertex -42.4003 -18.1671 0
      vertex -42.5 -16.9001 15
      vertex -42.5 -16.9001 0
    endloop
  endfacet
  facet normal -0.996918 -0.0784473 0
    outer loop
      vertex -42.5 -16.9001 15
      vertex -42.4003 -18.1671 0
      vertex -42.4003 -18.1671 15
    endloop
  endfacet
  facet normal 0 0 -1
    outer loop
      vertex -2.5 -25 0
      vertex -2.54 -23.15 0
      vertex -2.5 -23.15 0
    endloop
  endfacet
  facet normal 0 0 -1
    outer loop
      vertex -34.4001 -25 0
      vertex -2.54 -13.15 0
      vertex -2.54 -23.15 0
    endloop
  endfacet
  facet normal 0 0 -1
    outer loop
      vertex -42.5 -16.9001 0
      vertex -2.54 -13.15 0
      vertex -34.4001 -25 0
    endloop
  endfacet
  facet normal -0 0 -1
    outer loop
      vertex -2.54 -13.15 0
      vertex -42.5 -16.9001 0
      vertex -2.54 13.15 0
    endloop
  endfacet
  facet normal 0 0 -1
    outer loop
      vertex -34.4001 -25 0
      vertex -2.54 -23.15 0
      vertex -2.5 -25 0
    endloop
  endfacet
  facet normal 0 0 -1
    outer loop
      vertex -2.54 -13.15 0
      vertex -2.5 13.15 0
      vertex -2.5 -13.15 0
    endloop
  endfacet
  facet normal -0 0 -1
    outer loop
      vertex -2.5 13.15 0
      vertex -2.54 -13.15 0
      vertex -2.54 13.15 0
    endloop
  endfacet
  facet normal 0 0 -1
    outer loop
      vertex -2.54 23.15 0
      vertex -2.5 25 0
      vertex -2.5 23.15 0
    endloop
  endfacet
  facet normal 0 0 -1
    outer loop
      vertex -42.5 16.9001 0
      vertex -2.54 13.15 0
      vertex -42.5 -16.9001 0
    endloop
  endfacet
  facet normal 0 -0 -1
    outer loop
      vertex -34.4001 25 0
      vertex -2.54 13.15 0
      vertex -42.5 16.9001 0
    endloop
  endfacet
  facet normal 0 0 -1
    outer loop
      vertex -42.5 -16.9001 0
      vertex -34.4001 -25 0
      vertex -35.6671 -24.9003 0
    endloop
  endfacet
  facet normal 0 0 -1
    outer loop
      vertex -2.54 13.15 0
      vertex -34.4001 25 0
      vertex -2.54 23.15 0
    endloop
  endfacet
  facet normal 0 0 -1
    outer loop
      vertex -42.5 -16.9001 0
      vertex -35.6671 -24.9003 0
      vertex -36.903 -24.6036 0
    endloop
  endfacet
  facet normal 0 0 -1
    outer loop
      vertex -2.54 23.15 0
      vertex -34.4001 25 0
      vertex -2.5 25 0
    endloop
  endfacet
  facet normal 0 0 -1
    outer loop
      vertex -42.5 -16.9001 0
      vertex -36.903 -24.6036 0
      vertex -38.0773 -24.1172 0
    endloop
  endfacet
  facet normal 0 0 -1
    outer loop
      vertex -34.4001 25 0
      vertex -42.5 16.9001 0
      vertex -35.6671 24.9003 0
    endloop
  endfacet
  facet normal 0 0 -1
    outer loop
      vertex -42.5 -16.9001 0
      vertex -38.0773 -24.1172 0
      vertex -39.1611 -23.453 0
    endloop
  endfacet
  facet normal 0 0 -1
    outer loop
      vertex -35.6671 24.9003 0
      vertex -42.5 16.9001 0
      vertex -36.903 24.6036 0
    endloop
  endfacet
  facet normal 0 0 -1
    outer loop
      vertex -42.5 -16.9001 0
      vertex -39.1611 -23.453 0
      vertex -40.1276 -22.6276 0
    endloop
  endfacet
  facet normal 0 0 -1
    outer loop
      vertex -36.903 24.6036 0
      vertex -42.5 16.9001 0
      vertex -38.0773 24.1172 0
    endloop
  endfacet
  facet normal 0 0 -1
    outer loop
      vertex -42.5 -16.9001 0
      vertex -40.1276 -22.6276 0
      vertex -40.953 -21.6611 0
    endloop
  endfacet
  facet normal 0 0 -1
    outer loop
      vertex -38.0773 24.1172 0
      vertex -42.5 16.9001 0
      vertex -39.1611 23.453 0
    endloop
  endfacet
  facet normal 0 0 -1
    outer loop
      vertex -42.5 -16.9001 0
      vertex -40.953 -21.6611 0
      vertex -41.6172 -20.5773 0
    endloop
  endfacet
  facet normal 0 0 -1
    outer loop
      vertex -39.1611 23.453 0
      vertex -42.5 16.9001 0
      vertex -40.1276 22.6276 0
    endloop
  endfacet
  facet normal 0 0 -1
    outer loop
      vertex -42.5 -16.9001 0
      vertex -41.6172 -20.5773 0
      vertex -42.1036 -19.403 0
    endloop
  endfacet
  facet normal 0 0 -1
    outer loop
      vertex -40.1276 22.6276 0
      vertex -42.5 16.9001 0
      vertex -40.953 21.6611 0
    endloop
  endfacet
  facet normal 0 0 -1
    outer loop
      vertex -42.5 -16.9001 0
      vertex -42.1036 -19.403 0
      vertex -42.4003 -18.1671 0
    endloop
  endfacet
  facet normal 0 0 -1
    outer loop
      vertex -40.953 21.6611 0
      vertex -42.5 16.9001 0
      vertex -41.6172 20.5773 0
    endloop
  endfacet
  facet normal 0 0 -1
    outer loop
      vertex -41.6172 20.5773 0
      vertex -42.5 16.9001 0
      vertex -42.1036 19.403 0
    endloop
  endfacet
  facet normal 0 0 -1
    outer loop
      vertex -42.1036 19.403 0
      vertex -42.5 16.9001 0
      vertex -42.4003 18.1671 0
    endloop
  endfacet
  facet normal -0.852624 0.522525 0
    outer loop
      vertex -41.6172 20.5773 0
      vertex -40.953 21.6611 15
      vertex -40.953 21.6611 0
    endloop
  endfacet
  facet normal -0.852624 0.522525 0
    outer loop
      vertex -40.953 21.6611 15
      vertex -41.6172 20.5773 0
      vertex -41.6172 20.5773 15
    endloop
  endfacet
  facet normal 0 1 -0
    outer loop
      vertex -2.5 25 0
      vertex -34.4001 25 15
      vertex -2.5 25 15
    endloop
  endfacet
  facet normal 0 1 0
    outer loop
      vertex -34.4001 25 15
      vertex -2.5 25 0
      vertex -34.4001 25 0
    endloop
  endfacet
  facet normal -0.923883 -0.382676 0
    outer loop
      vertex -41.6172 -20.5773 0
      vertex -42.1036 -19.403 15
      vertex -42.1036 -19.403 0
    endloop
  endfacet
  facet normal -0.923883 -0.382676 0
    outer loop
      vertex -42.1036 -19.403 15
      vertex -41.6172 -20.5773 0
      vertex -41.6172 -20.5773 15
    endloop
  endfacet
  facet normal -0.649417 0.760433 0
    outer loop
      vertex -39.1611 23.453 0
      vertex -40.1276 22.6276 15
      vertex -39.1611 23.453 15
    endloop
  endfacet
  facet normal -0.649417 0.760433 0
    outer loop
      vertex -40.1276 22.6276 15
      vertex -39.1611 23.453 0
      vertex -40.1276 22.6276 0
    endloop
  endfacet
  facet normal -0.996918 0.0784473 0
    outer loop
      vertex -42.5 16.9001 0
      vertex -42.4003 18.1671 15
      vertex -42.4003 18.1671 0
    endloop
  endfacet
  facet normal -0.996918 0.0784473 0
    outer loop
      vertex -42.4003 18.1671 15
      vertex -42.5 16.9001 0
      vertex -42.5 16.9001 15
    endloop
  endfacet
  facet normal -0.760433 0.649417 0
    outer loop
      vertex -40.953 21.6611 0
      vertex -40.1276 22.6276 15
      vertex -40.1276 22.6276 0
    endloop
  endfacet
  facet normal -0.760433 0.649417 0
    outer loop
      vertex -40.1276 22.6276 15
      vertex -40.953 21.6611 0
      vertex -40.953 21.6611 15
    endloop
  endfacet
  facet normal -0.972372 0.233435 0
    outer loop
      vertex -42.4003 18.1671 0
      vertex -42.1036 19.403 15
      vertex -42.1036 19.403 0
    endloop
  endfacet
  facet normal -0.972372 0.233435 0
    outer loop
      vertex -42.1036 19.403 15
      vertex -42.4003 18.1671 0
      vertex -42.4003 18.1671 15
    endloop
  endfacet
  facet normal -0.972372 -0.233435 0
    outer loop
      vertex -42.1036 -19.403 0
      vertex -42.4003 -18.1671 15
      vertex -42.4003 -18.1671 0
    endloop
  endfacet
  facet normal -0.972372 -0.233435 0
    outer loop
      vertex -42.4003 -18.1671 15
      vertex -42.1036 -19.403 0
      vertex -42.1036 -19.403 15
    endloop
  endfacet
  facet normal 0 0 1
    outer loop
      vertex -2.5 25 15
      vertex -32.5501 23.15 15
      vertex -2.5 23.15 15
    endloop
  endfacet
  facet normal -0 0 1
    outer loop
      vertex -34.4001 25 15
      vertex -32.5501 23.15 15
      vertex -2.5 25 15
    endloop
  endfacet
  facet normal 0 0 1
    outer loop
      vertex -34.4001 25 15
      vertex -33.8171 23.0503 15
      vertex -32.5501 23.15 15
    endloop
  endfacet
  facet normal 0 0 1
    outer loop
      vertex -34.4001 25 15
      vertex -35.053 22.7536 15
      vertex -33.8171 23.0503 15
    endloop
  endfacet
  facet normal -0 0 1
    outer loop
      vertex -35.6671 24.9003 15
      vertex -35.053 22.7536 15
      vertex -34.4001 25 15
    endloop
  endfacet
  facet normal -0 0 1
    outer loop
      vertex -36.903 24.6036 15
      vertex -35.053 22.7536 15
      vertex -35.6671 24.9003 15
    endloop
  endfacet
  facet normal 0 0 1
    outer loop
      vertex -35.053 22.7536 15
      vertex -36.903 24.6036 15
      vertex -36.2273 22.2672 15
    endloop
  endfacet
  facet normal -0 0 1
    outer loop
      vertex -38.0773 24.1172 15
      vertex -36.2273 22.2672 15
      vertex -36.903 24.6036 15
    endloop
  endfacet
  facet normal 0 0 1
    outer loop
      vertex -36.2273 22.2672 15
      vertex -38.0773 24.1172 15
      vertex -37.3111 21.603 15
    endloop
  endfacet
  facet normal -0 0 1
    outer loop
      vertex -39.1611 23.453 15
      vertex -37.3111 21.603 15
      vertex -38.0773 24.1172 15
    endloop
  endfacet
  facet normal 0 0 1
    outer loop
      vertex -37.3111 21.603 15
      vertex -39.1611 23.453 15
      vertex -38.2776 20.7776 15
    endloop
  endfacet
  facet normal -0 0 1
    outer loop
      vertex -40.1276 22.6276 15
      vertex -38.2776 20.7776 15
      vertex -39.1611 23.453 15
    endloop
  endfacet
  facet normal -0 0 1
    outer loop
      vertex -40.953 21.6611 15
      vertex -38.2776 20.7776 15
      vertex -40.1276 22.6276 15
    endloop
  endfacet
  facet normal 0 0 1
    outer loop
      vertex -38.2776 20.7776 15
      vertex -40.953 21.6611 15
      vertex -39.103 19.8111 15
    endloop
  endfacet
  facet normal -0 0 1
    outer loop
      vertex -41.6172 20.5773 15
      vertex -39.103 19.8111 15
      vertex -40.953 21.6611 15
    endloop
  endfacet
  facet normal 0 0 1
    outer loop
      vertex -39.103 19.8111 15
      vertex -41.6172 20.5773 15
      vertex -39.7672 18.7273 15
    endloop
  endfacet
  facet normal -0 0 1
    outer loop
      vertex -42.1036 19.403 15
      vertex -39.7672 18.7273 15
      vertex -41.6172 20.5773 15
    endloop
  endfacet
  facet normal -0 0 1
    outer loop
      vertex -42.4003 18.1671 15
      vertex -40.2536 17.553 15
      vertex -42.1036 19.403 15
    endloop
  endfacet
  facet normal 0 0 1
    outer loop
      vertex -39.7672 18.7273 15
      vertex -42.1036 19.403 15
      vertex -40.2536 17.553 15
    endloop
  endfacet
  facet normal -0 0 1
    outer loop
      vertex -32.5501 -23.15 15
      vertex -2.5 -25 15
      vertex -2.5 -23.15 15
    endloop
  endfacet
  facet normal 0 0 1
    outer loop
      vertex -32.5501 -23.15 15
      vertex -34.4001 -25 15
      vertex -2.5 -25 15
    endloop
  endfacet
  facet normal 0 0 1
    outer loop
      vertex -33.8171 -23.0503 15
      vertex -34.4001 -25 15
      vertex -32.5501 -23.15 15
    endloop
  endfacet
  facet normal 0 0 1
    outer loop
      vertex -35.053 -22.7536 15
      vertex -34.4001 -25 15
      vertex -33.8171 -23.0503 15
    endloop
  endfacet
  facet normal 0 0 1
    outer loop
      vertex -35.053 -22.7536 15
      vertex -35.6671 -24.9003 15
      vertex -34.4001 -25 15
    endloop
  endfacet
  facet normal 0 0 1
    outer loop
      vertex -36.903 -24.6036 15
      vertex -35.053 -22.7536 15
      vertex -36.2273 -22.2672 15
    endloop
  endfacet
  facet normal 0 0 1
    outer loop
      vertex -35.053 -22.7536 15
      vertex -36.903 -24.6036 15
      vertex -35.6671 -24.9003 15
    endloop
  endfacet
  facet normal 0 0 1
    outer loop
      vertex -38.0773 -24.1172 15
      vertex -36.2273 -22.2672 15
      vertex -37.3111 -21.603 15
    endloop
  endfacet
  facet normal 0 0 1
    outer loop
      vertex -36.2273 -22.2672 15
      vertex -38.0773 -24.1172 15
      vertex -36.903 -24.6036 15
    endloop
  endfacet
  facet normal 0 0 1
    outer loop
      vertex -39.1611 -23.453 15
      vertex -37.3111 -21.603 15
      vertex -38.2776 -20.7776 15
    endloop
  endfacet
  facet normal 0 0 1
    outer loop
      vertex -40.953 -21.6611 15
      vertex -38.2776 -20.7776 15
      vertex -39.103 -19.8111 15
    endloop
  endfacet
  facet normal 0 0 1
    outer loop
      vertex -37.3111 -21.603 15
      vertex -39.1611 -23.453 15
      vertex -38.0773 -24.1172 15
    endloop
  endfacet
  facet normal 0 0 1
    outer loop
      vertex -41.6172 -20.5773 15
      vertex -39.103 -19.8111 15
      vertex -39.7672 -18.7273 15
    endloop
  endfacet
  facet normal 0 0 1
    outer loop
      vertex -38.2776 -20.7776 15
      vertex -40.1276 -22.6276 15
      vertex -39.1611 -23.453 15
    endloop
  endfacet
  facet normal 0 0 1
    outer loop
      vertex -42.1036 -19.403 15
      vertex -39.7672 -18.7273 15
      vertex -40.2536 -17.553 15
    endloop
  endfacet
  facet normal -0 0 1
    outer loop
      vertex -42.5 -16.9001 15
      vertex -40.2536 -17.553 15
      vertex -40.5503 -16.3171 15
    endloop
  endfacet
  facet normal 0 0 1
    outer loop
      vertex -42.5 -16.9001 15
      vertex -40.5503 -16.3171 15
      vertex -40.65 -15.0501 15
    endloop
  endfacet
  facet normal 0 0 1
    outer loop
      vertex -38.2776 -20.7776 15
      vertex -40.953 -21.6611 15
      vertex -40.1276 -22.6276 15
    endloop
  endfacet
  facet normal 0 0 1
    outer loop
      vertex -40.65 15.0501 15
      vertex -42.5 16.9001 15
      vertex -40.65 -15.0501 15
    endloop
  endfacet
  facet normal 0 0 1
    outer loop
      vertex -42.5 16.9001 15
      vertex -40.2536 17.553 15
      vertex -42.4003 18.1671 15
    endloop
  endfacet
  facet normal 0 0 1
    outer loop
      vertex -42.5 -16.9001 15
      vertex -40.65 -15.0501 15
      vertex -42.5 16.9001 15
    endloop
  endfacet
  facet normal 0 0 1
    outer loop
      vertex -40.2536 17.553 15
      vertex -42.5 16.9001 15
      vertex -40.5503 16.3171 15
    endloop
  endfacet
  facet normal 0 0 1
    outer loop
      vertex -40.2536 -17.553 15
      vertex -42.5 -16.9001 15
      vertex -42.4003 -18.1671 15
    endloop
  endfacet
  facet normal 0 0 1
    outer loop
      vertex -40.5503 16.3171 15
      vertex -42.5 16.9001 15
      vertex -40.65 15.0501 15
    endloop
  endfacet
  facet normal 0 0 1
    outer loop
      vertex -39.103 -19.8111 15
      vertex -41.6172 -20.5773 15
      vertex -40.953 -21.6611 15
    endloop
  endfacet
  facet normal 0 0 1
    outer loop
      vertex -39.7672 -18.7273 15
      vertex -42.1036 -19.403 15
      vertex -41.6172 -20.5773 15
    endloop
  endfacet
  facet normal 0 0 1
    outer loop
      vertex -40.2536 -17.553 15
      vertex -42.4003 -18.1671 15
      vertex -42.1036 -19.403 15
    endloop
  endfacet
  facet normal -0.233435 0.972372 0
    outer loop
      vertex -35.6671 24.9003 0
      vertex -36.903 24.6036 15
      vertex -35.6671 24.9003 15
    endloop
  endfacet
  facet normal -0.233435 0.972372 0
    outer loop
      vertex -36.903 24.6036 15
      vertex -35.6671 24.9003 0
      vertex -36.903 24.6036 0
    endloop
  endfacet
  facet normal -0.0784473 0.996918 0
    outer loop
      vertex -34.4001 25 0
      vertex -35.6671 24.9003 15
      vertex -34.4001 25 15
    endloop
  endfacet
  facet normal -0.0784473 0.996918 0
    outer loop
      vertex -35.6671 24.9003 15
      vertex -34.4001 25 0
      vertex -35.6671 24.9003 0
    endloop
  endfacet
  facet normal 0.233435 0.972372 -0
    outer loop
      vertex -33.8171 -23.0503 1.85
      vertex -35.053 -22.7536 15
      vertex -33.8171 -23.0503 15
    endloop
  endfacet
  facet normal 0.233435 0.972372 0
    outer loop
      vertex -35.053 -22.7536 15
      vertex -33.8171 -23.0503 1.85
      vertex -35.053 -22.7536 1.85
    endloop
  endfacet
  facet normal 0.649417 0.760433 -0
    outer loop
      vertex -37.3111 -21.603 1.85
      vertex -38.2776 -20.7776 15
      vertex -37.3111 -21.603 15
    endloop
  endfacet
  facet normal 0.649417 0.760433 0
    outer loop
      vertex -38.2776 -20.7776 15
      vertex -37.3111 -21.603 1.85
      vertex -38.2776 -20.7776 1.85
    endloop
  endfacet
  facet normal 0.996918 -0.0784473 0
    outer loop
      vertex -40.65 15.0501 15
      vertex -40.5503 16.3171 1.85
      vertex -40.5503 16.3171 15
    endloop
  endfacet
  facet normal 0.996918 -0.0784473 0
    outer loop
      vertex -40.5503 16.3171 1.85
      vertex -40.65 15.0501 15
      vertex -40.65 15.0501 1.85
    endloop
  endfacet
  facet normal 0.382676 0.923883 -0
    outer loop
      vertex -35.053 -22.7536 1.85
      vertex -36.2273 -22.2672 15
      vertex -35.053 -22.7536 15
    endloop
  endfacet
  facet normal 0.382676 0.923883 0
    outer loop
      vertex -36.2273 -22.2672 15
      vertex -35.053 -22.7536 1.85
      vertex -36.2273 -22.2672 1.85
    endloop
  endfacet
  facet normal 1 -0 0
    outer loop
      vertex -40.65 -15.0501 15
      vertex -40.65 15.0501 1.85
      vertex -40.65 15.0501 15
    endloop
  endfacet
  facet normal 1 0 0
    outer loop
      vertex -40.65 15.0501 1.85
      vertex -40.65 -15.0501 15
      vertex -40.65 -15.0501 1.85
    endloop
  endfacet
  facet normal 0 1 0
    outer loop
      vertex -2.54 -23.15 2.425
      vertex -2.5 -23.15 15
      vertex -2.5 -23.15 2.425
    endloop
  endfacet
  facet normal 0 1 0
    outer loop
      vertex -2.5 -23.15 15
      vertex -2.54 -23.15 2.425
      vertex -32.5501 -23.15 15
    endloop
  endfacet
  facet normal 0 1 0
    outer loop
      vertex -32.5501 -23.15 1.85
      vertex -2.54 -23.15 2.425
      vertex -2.54 -23.15 1.85
    endloop
  endfacet
  facet normal 0 1 0
    outer loop
      vertex -2.54 -23.15 2.425
      vertex -32.5501 -23.15 1.85
      vertex -32.5501 -23.15 15
    endloop
  endfacet
  facet normal 0.522525 0.852624 -0
    outer loop
      vertex -36.2273 -22.2672 1.85
      vertex -37.3111 -21.603 15
      vertex -36.2273 -22.2672 15
    endloop
  endfacet
  facet normal 0.522525 0.852624 0
    outer loop
      vertex -37.3111 -21.603 15
      vertex -36.2273 -22.2672 1.85
      vertex -37.3111 -21.603 1.85
    endloop
  endfacet
  facet normal 0.852624 -0.522525 0
    outer loop
      vertex -39.7672 18.7273 15
      vertex -39.103 19.8111 1.85
      vertex -39.103 19.8111 15
    endloop
  endfacet
  facet normal 0.852624 -0.522525 0
    outer loop
      vertex -39.103 19.8111 1.85
      vertex -39.7672 18.7273 15
      vertex -39.7672 18.7273 1.85
    endloop
  endfacet
  facet normal 0.0784473 -0.996918 0
    outer loop
      vertex -33.8171 23.0503 1.85
      vertex -32.5501 23.15 15
      vertex -33.8171 23.0503 15
    endloop
  endfacet
  facet normal 0.0784473 -0.996918 0
    outer loop
      vertex -32.5501 23.15 15
      vertex -33.8171 23.0503 1.85
      vertex -32.5501 23.15 1.85
    endloop
  endfacet
  facet normal 0 -1 0
    outer loop
      vertex -32.5501 23.15 15
      vertex -2.54 23.15 2.425
      vertex -2.5 23.15 15
    endloop
  endfacet
  facet normal 0 -1 0
    outer loop
      vertex -32.5501 23.15 1.85
      vertex -2.54 23.15 2.425
      vertex -32.5501 23.15 15
    endloop
  endfacet
  facet normal 0 -1 -0
    outer loop
      vertex -2.54 23.15 2.425
      vertex -32.5501 23.15 1.85
      vertex -2.54 23.15 1.85
    endloop
  endfacet
  facet normal 0 -1 -0
    outer loop
      vertex -2.5 23.15 15
      vertex -2.54 23.15 2.425
      vertex -2.5 23.15 2.425
    endloop
  endfacet
  facet normal 0.0784473 0.996918 -0
    outer loop
      vertex -32.5501 -23.15 1.85
      vertex -33.8171 -23.0503 15
      vertex -32.5501 -23.15 15
    endloop
  endfacet
  facet normal 0.0784473 0.996918 0
    outer loop
      vertex -33.8171 -23.0503 15
      vertex -32.5501 -23.15 1.85
      vertex -33.8171 -23.0503 1.85
    endloop
  endfacet
  facet normal 0.760433 0.649417 0
    outer loop
      vertex -38.2776 -20.7776 15
      vertex -39.103 -19.8111 1.85
      vertex -39.103 -19.8111 15
    endloop
  endfacet
  facet normal 0.760433 0.649417 0
    outer loop
      vertex -39.103 -19.8111 1.85
      vertex -38.2776 -20.7776 15
      vertex -38.2776 -20.7776 1.85
    endloop
  endfacet
  facet normal 0.923883 0.382676 0
    outer loop
      vertex -39.7672 -18.7273 15
      vertex -40.2536 -17.553 1.85
      vertex -40.2536 -17.553 15
    endloop
  endfacet
  facet normal 0.923883 0.382676 0
    outer loop
      vertex -40.2536 -17.553 1.85
      vertex -39.7672 -18.7273 15
      vertex -39.7672 -18.7273 1.85
    endloop
  endfacet
  facet normal 0.522525 -0.852624 0
    outer loop
      vertex -37.3111 21.603 1.85
      vertex -36.2273 22.2672 15
      vertex -37.3111 21.603 15
    endloop
  endfacet
  facet normal 0.522525 -0.852624 0
    outer loop
      vertex -36.2273 22.2672 15
      vertex -37.3111 21.603 1.85
      vertex -36.2273 22.2672 1.85
    endloop
  endfacet
  facet normal 0.649417 -0.760433 0
    outer loop
      vertex -38.2776 20.7776 1.85
      vertex -37.3111 21.603 15
      vertex -38.2776 20.7776 15
    endloop
  endfacet
  facet normal 0.649417 -0.760433 0
    outer loop
      vertex -37.3111 21.603 15
      vertex -38.2776 20.7776 1.85
      vertex -37.3111 21.603 1.85
    endloop
  endfacet
  facet normal 0.382676 -0.923883 0
    outer loop
      vertex -36.2273 22.2672 1.85
      vertex -35.053 22.7536 15
      vertex -36.2273 22.2672 15
    endloop
  endfacet
  facet normal 0.382676 -0.923883 0
    outer loop
      vertex -35.053 22.7536 15
      vertex -36.2273 22.2672 1.85
      vertex -35.053 22.7536 1.85
    endloop
  endfacet
  facet normal 0.233435 -0.972372 0
    outer loop
      vertex -35.053 22.7536 1.85
      vertex -33.8171 23.0503 15
      vertex -35.053 22.7536 15
    endloop
  endfacet
  facet normal 0.233435 -0.972372 0
    outer loop
      vertex -33.8171 23.0503 15
      vertex -35.053 22.7536 1.85
      vertex -33.8171 23.0503 1.85
    endloop
  endfacet
  facet normal 0.996918 0.0784473 0
    outer loop
      vertex -40.5503 -16.3171 15
      vertex -40.65 -15.0501 1.85
      vertex -40.65 -15.0501 15
    endloop
  endfacet
  facet normal 0.996918 0.0784473 0
    outer loop
      vertex -40.65 -15.0501 1.85
      vertex -40.5503 -16.3171 15
      vertex -40.5503 -16.3171 1.85
    endloop
  endfacet
  facet normal -0 0 1
    outer loop
      vertex -32.5501 23.15 1.85
      vertex -2.54 13.15 1.85
      vertex -2.54 23.15 1.85
    endloop
  endfacet
  facet normal -0 0 1
    outer loop
      vertex -40.65 15.0501 1.85
      vertex -2.54 13.15 1.85
      vertex -32.5501 23.15 1.85
    endloop
  endfacet
  facet normal 0 0 1
    outer loop
      vertex -2.54 13.15 1.85
      vertex -40.65 15.0501 1.85
      vertex -2.54 -13.15 1.85
    endloop
  endfacet
  facet normal 0 0 1
    outer loop
      vertex -2.54 -13.15 1.85
      vertex -32.5501 -23.15 1.85
      vertex -2.54 -23.15 1.85
    endloop
  endfacet
  facet normal 0 0 1
    outer loop
      vertex -40.65 15.0501 1.85
      vertex -32.5501 23.15 1.85
      vertex -33.8171 23.0503 1.85
    endloop
  endfacet
  facet normal 0 0 1
    outer loop
      vertex -40.65 -15.0501 1.85
      vertex -2.54 -13.15 1.85
      vertex -40.65 15.0501 1.85
    endloop
  endfacet
  facet normal 0 0 1
    outer loop
      vertex -40.65 15.0501 1.85
      vertex -33.8171 23.0503 1.85
      vertex -35.053 22.7536 1.85
    endloop
  endfacet
  facet normal 0 0 1
    outer loop
      vertex -2.54 -13.15 1.85
      vertex -40.65 -15.0501 1.85
      vertex -32.5501 -23.15 1.85
    endloop
  endfacet
  facet normal 0 0 1
    outer loop
      vertex -40.65 15.0501 1.85
      vertex -35.053 22.7536 1.85
      vertex -36.2273 22.2672 1.85
    endloop
  endfacet
  facet normal 0 0 1
    outer loop
      vertex -32.5501 -23.15 1.85
      vertex -40.65 -15.0501 1.85
      vertex -33.8171 -23.0503 1.85
    endloop
  endfacet
  facet normal 0 0 1
    outer loop
      vertex -40.65 15.0501 1.85
      vertex -36.2273 22.2672 1.85
      vertex -37.3111 21.603 1.85
    endloop
  endfacet
  facet normal 0 0 1
    outer loop
      vertex -33.8171 -23.0503 1.85
      vertex -40.65 -15.0501 1.85
      vertex -35.053 -22.7536 1.85
    endloop
  endfacet
  facet normal 0 0 1
    outer loop
      vertex -40.65 15.0501 1.85
      vertex -37.3111 21.603 1.85
      vertex -38.2776 20.7776 1.85
    endloop
  endfacet
  facet normal 0 0 1
    outer loop
      vertex -35.053 -22.7536 1.85
      vertex -40.65 -15.0501 1.85
      vertex -36.2273 -22.2672 1.85
    endloop
  endfacet
  facet normal 0 0 1
    outer loop
      vertex -40.65 15.0501 1.85
      vertex -38.2776 20.7776 1.85
      vertex -39.103 19.8111 1.85
    endloop
  endfacet
  facet normal 0 0 1
    outer loop
      vertex -36.2273 -22.2672 1.85
      vertex -40.65 -15.0501 1.85
      vertex -37.3111 -21.603 1.85
    endloop
  endfacet
  facet normal 0 0 1
    outer loop
      vertex -40.65 15.0501 1.85
      vertex -39.103 19.8111 1.85
      vertex -39.7672 18.7273 1.85
    endloop
  endfacet
  facet normal 0 0 1
    outer loop
      vertex -37.3111 -21.603 1.85
      vertex -40.65 -15.0501 1.85
      vertex -38.2776 -20.7776 1.85
    endloop
  endfacet
  facet normal 0 0 1
    outer loop
      vertex -40.65 15.0501 1.85
      vertex -39.7672 18.7273 1.85
      vertex -40.2536 17.553 1.85
    endloop
  endfacet
  facet normal 0 0 1
    outer loop
      vertex -38.2776 -20.7776 1.85
      vertex -40.65 -15.0501 1.85
      vertex -39.103 -19.8111 1.85
    endloop
  endfacet
  facet normal 0 0 1
    outer loop
      vertex -40.65 15.0501 1.85
      vertex -40.2536 17.553 1.85
      vertex -40.5503 16.3171 1.85
    endloop
  endfacet
  facet normal 0 0 1
    outer loop
      vertex -39.103 -19.8111 1.85
      vertex -40.65 -15.0501 1.85
      vertex -39.7672 -18.7273 1.85
    endloop
  endfacet
  facet normal 0 0 1
    outer loop
      vertex -39.7672 -18.7273 1.85
      vertex -40.65 -15.0501 1.85
      vertex -40.2536 -17.553 1.85
    endloop
  endfacet
  facet normal 0 0 1
    outer loop
      vertex -40.2536 -17.553 1.85
      vertex -40.65 -15.0501 1.85
      vertex -40.5503 -16.3171 1.85
    endloop
  endfacet
  facet normal -0 0 1
    outer loop
      vertex -2.54 13.15 1.85
      vertex -2.5 -13.15 1.85
      vertex -2.5 13.15 1.85
    endloop
  endfacet
  facet normal 0 0 1
    outer loop
      vertex -2.5 -13.15 1.85
      vertex -2.54 13.15 1.85
      vertex -2.54 -13.15 1.85
    endloop
  endfacet
  facet normal 0.852624 0.522525 0
    outer loop
      vertex -39.103 -19.8111 15
      vertex -39.7672 -18.7273 1.85
      vertex -39.7672 -18.7273 15
    endloop
  endfacet
  facet normal 0.852624 0.522525 0
    outer loop
      vertex -39.7672 -18.7273 1.85
      vertex -39.103 -19.8111 15
      vertex -39.103 -19.8111 1.85
    endloop
  endfacet
  facet normal 0.972372 0.233435 0
    outer loop
      vertex -40.2536 -17.553 15
      vertex -40.5503 -16.3171 1.85
      vertex -40.5503 -16.3171 15
    endloop
  endfacet
  facet normal 0.972372 0.233435 0
    outer loop
      vertex -40.5503 -16.3171 1.85
      vertex -40.2536 -17.553 15
      vertex -40.2536 -17.553 1.85
    endloop
  endfacet
  facet normal 0.760433 -0.649417 0
    outer loop
      vertex -39.103 19.8111 15
      vertex -38.2776 20.7776 1.85
      vertex -38.2776 20.7776 15
    endloop
  endfacet
  facet normal 0.760433 -0.649417 0
    outer loop
      vertex -38.2776 20.7776 1.85
      vertex -39.103 19.8111 15
      vertex -39.103 19.8111 1.85
    endloop
  endfacet
  facet normal 0.972372 -0.233435 0
    outer loop
      vertex -40.5503 16.3171 15
      vertex -40.2536 17.553 1.85
      vertex -40.2536 17.553 15
    endloop
  endfacet
  facet normal 0.972372 -0.233435 0
    outer loop
      vertex -40.2536 17.553 1.85
      vertex -40.5503 16.3171 15
      vertex -40.5503 16.3171 1.85
    endloop
  endfacet
  facet normal 0.923883 -0.382676 0
    outer loop
      vertex -40.2536 17.553 15
      vertex -39.7672 18.7273 1.85
      vertex -39.7672 18.7273 15
    endloop
  endfacet
  facet normal 0.923883 -0.382676 0
    outer loop
      vertex -39.7672 18.7273 1.85
      vertex -40.2536 17.553 15
      vertex -40.2536 17.553 1.85
    endloop
  endfacet
  facet normal 1 0 0
    outer loop
      vertex -2.5 25 15
      vertex -2.5 23.15 2.425
      vertex -2.5 25 0
    endloop
  endfacet
  facet normal 1 -0 0
    outer loop
      vertex -2.5 23.15 15
      vertex -2.5 23.15 2.425
      vertex -2.5 25 15
    endloop
  endfacet
  facet normal 1 0 0
    outer loop
      vertex -2.5 25 0
      vertex -2.5 23.15 2.425
      vertex -2.5 23.15 0
    endloop
  endfacet
  facet normal 1 -0 0
    outer loop
      vertex -2.5 -25 15
      vertex -2.5 -23.15 2.425
      vertex -2.5 -23.15 15
    endloop
  endfacet
  facet normal 1 0 0
    outer loop
      vertex -2.5 -25 0
      vertex -2.5 -23.15 2.425
      vertex -2.5 -25 15
    endloop
  endfacet
  facet normal 1 0 0
    outer loop
      vertex -2.5 -23.15 2.425
      vertex -2.5 -25 0
      vertex -2.5 -23.15 0
    endloop
  endfacet
  facet normal 1 -0 0
    outer loop
      vertex -2.5 -13.15 1.85
      vertex -2.5 13.15 0
      vertex -2.5 13.15 1.85
    endloop
  endfacet
  facet normal 1 0 0
    outer loop
      vertex -2.5 13.15 0
      vertex -2.5 -13.15 1.85
      vertex -2.5 -13.15 0
    endloop
  endfacet
  facet normal -1 0 0
    outer loop
      vertex -2.54 -23.15 -0.575
      vertex -2.54 -13.15 0
      vertex -2.54 -13.15 -0.575
    endloop
  endfacet
  facet normal -1 -0 0
    outer loop
      vertex -2.54 -13.15 0
      vertex -2.54 -23.15 -0.575
      vertex -2.54 -23.15 0
    endloop
  endfacet
  facet normal -1 0 0
    outer loop
      vertex -2.54 -23.15 1.85
      vertex -2.54 -13.15 2.425
      vertex -2.54 -13.15 1.85
    endloop
  endfacet
  facet normal -1 -0 0
    outer loop
      vertex -2.54 -13.15 2.425
      vertex -2.54 -23.15 1.85
      vertex -2.54 -23.15 2.425
    endloop
  endfacet
  facet normal 0 0 1
    outer loop
      vertex 1.46 -13.15 2.425
      vertex -2.5 -23.15 2.425
      vertex 1.46 -23.15 2.425
    endloop
  endfacet
  facet normal -0 0 1
    outer loop
      vertex -2.54 -13.15 2.425
      vertex -2.5 -23.15 2.425
      vertex 1.46 -13.15 2.425
    endloop
  endfacet
  facet normal 0 0 1
    outer loop
      vertex -2.5 -23.15 2.425
      vertex -2.54 -13.15 2.425
      vertex -2.54 -23.15 2.425
    endloop
  endfacet
  facet normal 1 -0 0
    outer loop
      vertex 1.46 -23.15 2.425
      vertex 1.46 -13.15 -0.575
      vertex 1.46 -13.15 2.425
    endloop
  endfacet
  facet normal 1 0 0
    outer loop
      vertex 1.46 -13.15 -0.575
      vertex 1.46 -23.15 2.425
      vertex 1.46 -23.15 -0.575
    endloop
  endfacet
  facet normal 0 1 0
    outer loop
      vertex 1.46 -13.15 2.425
      vertex -2.5 -13.15 1.85
      vertex -2.54 -13.15 2.425
    endloop
  endfacet
  facet normal 0 1 0
    outer loop
      vertex 1.46 -13.15 2.425
      vertex -2.5 -13.15 0
      vertex -2.5 -13.15 1.85
    endloop
  endfacet
  facet normal 0 1 -0
    outer loop
      vertex 1.46 -13.15 -0.575
      vertex -2.5 -13.15 0
      vertex 1.46 -13.15 2.425
    endloop
  endfacet
  facet normal 0 1 0
    outer loop
      vertex -2.54 -13.15 -0.575
      vertex -2.5 -13.15 0
      vertex 1.46 -13.15 -0.575
    endloop
  endfacet
  facet normal 0 1 0
    outer loop
      vertex -2.5 -13.15 0
      vertex -2.54 -13.15 -0.575
      vertex -2.54 -13.15 0
    endloop
  endfacet
  facet normal 0 1 0
    outer loop
      vertex -2.54 -13.15 2.425
      vertex -2.5 -13.15 1.85
      vertex -2.54 -13.15 1.85
    endloop
  endfacet
  facet normal 0 0 -1
    outer loop
      vertex -2.54 -23.15 -0.575
      vertex 1.46 -13.15 -0.575
      vertex 1.46 -23.15 -0.575
    endloop
  endfacet
  facet normal -0 0 -1
    outer loop
      vertex 1.46 -13.15 -0.575
      vertex -2.54 -23.15 -0.575
      vertex -2.54 -13.15 -0.575
    endloop
  endfacet
  facet normal 0 -1 0
    outer loop
      vertex -2.54 -23.15 0
      vertex -2.54 -23.15 -0.575
      vertex -2.5 -23.15 0
    endloop
  endfacet
  facet normal 0 -1 0
    outer loop
      vertex -2.5 -23.15 0
      vertex 1.46 -23.15 2.425
      vertex -2.5 -23.15 2.425
    endloop
  endfacet
  facet normal 0 -1 0
    outer loop
      vertex 1.46 -23.15 -0.575
      vertex -2.5 -23.15 0
      vertex -2.54 -23.15 -0.575
    endloop
  endfacet
  facet normal 0 -1 0
    outer loop
      vertex -2.5 -23.15 0
      vertex 1.46 -23.15 -0.575
      vertex 1.46 -23.15 2.425
    endloop
  endfacet
  facet normal -1 0 0
    outer loop
      vertex -2.54 13.15 -0.575
      vertex -2.54 23.15 0
      vertex -2.54 23.15 -0.575
    endloop
  endfacet
  facet normal -1 -0 0
    outer loop
      vertex -2.54 23.15 0
      vertex -2.54 13.15 -0.575
      vertex -2.54 13.15 0
    endloop
  endfacet
  facet normal -1 0 0
    outer loop
      vertex -2.54 13.15 1.85
      vertex -2.54 23.15 2.425
      vertex -2.54 23.15 1.85
    endloop
  endfacet
  facet normal -1 -0 0
    outer loop
      vertex -2.54 23.15 2.425
      vertex -2.54 13.15 1.85
      vertex -2.54 13.15 2.425
    endloop
  endfacet
  facet normal 0 0 1
    outer loop
      vertex 1.46 23.15 2.425
      vertex -2.5 23.15 2.425
      vertex 1.46 13.15 2.425
    endloop
  endfacet
  facet normal 0 0 1
    outer loop
      vertex -2.54 13.15 2.425
      vertex -2.5 23.15 2.425
      vertex -2.54 23.15 2.425
    endloop
  endfacet
  facet normal 0 0 1
    outer loop
      vertex -2.5 23.15 2.425
      vertex -2.54 13.15 2.425
      vertex 1.46 13.15 2.425
    endloop
  endfacet
  facet normal 1 -0 0
    outer loop
      vertex 1.46 13.15 2.425
      vertex 1.46 23.15 -0.575
      vertex 1.46 23.15 2.425
    endloop
  endfacet
  facet normal 1 0 0
    outer loop
      vertex 1.46 23.15 -0.575
      vertex 1.46 13.15 2.425
      vertex 1.46 13.15 -0.575
    endloop
  endfacet
  facet normal 0 0 -1
    outer loop
      vertex -2.54 13.15 -0.575
      vertex 1.46 23.15 -0.575
      vertex 1.46 13.15 -0.575
    endloop
  endfacet
  facet normal -0 0 -1
    outer loop
      vertex 1.46 23.15 -0.575
      vertex -2.54 13.15 -0.575
      vertex -2.54 23.15 -0.575
    endloop
  endfacet
  facet normal 0 -1 0
    outer loop
      vertex -2.54 13.15 0
      vertex -2.54 13.15 -0.575
      vertex -2.5 13.15 0
    endloop
  endfacet
  facet normal 0 -1 0
    outer loop
      vertex -2.5 13.15 1.85
      vertex -2.54 13.15 2.425
      vertex -2.54 13.15 1.85
    endloop
  endfacet
  facet normal 0 -1 0
    outer loop
      vertex -2.54 13.15 2.425
      vertex -2.5 13.15 1.85
      vertex 1.46 13.15 2.425
    endloop
  endfacet
  facet normal 0 -1 0
    outer loop
      vertex -2.5 13.15 0
      vertex 1.46 13.15 2.425
      vertex -2.5 13.15 1.85
    endloop
  endfacet
  facet normal 0 -1 0
    outer loop
      vertex 1.46 13.15 -0.575
      vertex -2.5 13.15 0
      vertex -2.54 13.15 -0.575
    endloop
  endfacet
  facet normal 0 -1 0
    outer loop
      vertex -2.5 13.15 0
      vertex 1.46 13.15 -0.575
      vertex 1.46 13.15 2.425
    endloop
  endfacet
  facet normal 0 1 0
    outer loop
      vertex 1.46 23.15 2.425
      vertex -2.5 23.15 0
      vertex -2.5 23.15 2.425
    endloop
  endfacet
  facet normal 0 1 -0
    outer loop
      vertex 1.46 23.15 -0.575
      vertex -2.5 23.15 0
      vertex 1.46 23.15 2.425
    endloop
  endfacet
  facet normal 0 1 0
    outer loop
      vertex -2.54 23.15 -0.575
      vertex -2.5 23.15 0
      vertex 1.46 23.15 -0.575
    endloop
  endfacet
  facet normal 0 1 0
    outer loop
      vertex -2.5 23.15 0
      vertex -2.54 23.15 -0.575
      vertex -2.54 23.15 0
    endloop
  endfacet
  facet normal 0.996918 0.0784473 0
    outer loop
      vertex 42.5 16.9001 15
      vertex 42.4003 18.1671 0
      vertex 42.4003 18.1671 15
    endloop
  endfacet
  facet normal 0.996918 0.0784473 0
    outer loop
      vertex 42.4003 18.1671 0
      vertex 42.5 16.9001 15
      vertex 42.5 16.9001 0
    endloop
  endfacet
  facet normal 1 -0 0
    outer loop
      vertex 42.5 -16.9001 15
      vertex 42.5 16.9001 0
      vertex 42.5 16.9001 15
    endloop
  endfacet
  facet normal 1 0 0
    outer loop
      vertex 42.5 16.9001 0
      vertex 42.5 -16.9001 15
      vertex 42.5 -16.9001 0
    endloop
  endfacet
  facet normal 0.852624 0.522525 0
    outer loop
      vertex 41.6172 20.5773 15
      vertex 40.953 21.6611 0
      vertex 40.953 21.6611 15
    endloop
  endfacet
  facet normal 0.852624 0.522525 0
    outer loop
      vertex 40.953 21.6611 0
      vertex 41.6172 20.5773 15
      vertex 41.6172 20.5773 0
    endloop
  endfacet
  facet normal 0 -1 0
    outer loop
      vertex 2.5 -25 0
      vertex 34.4001 -25 15
      vertex 2.5 -25 15
    endloop
  endfacet
  facet normal 0 -1 -0
    outer loop
      vertex 34.4001 -25 15
      vertex 2.5 -25 0
      vertex 34.4001 -25 0
    endloop
  endfacet
  facet normal 0 0 -1
    outer loop
      vertex 2.5 -12.95 0
      vertex 6.9 12.95 0
      vertex 6.9 -12.95 0
    endloop
  endfacet
  facet normal -0 0 -1
    outer loop
      vertex 6.9 12.95 0
      vertex 2.5 -12.95 0
      vertex 2.5 12.95 0
    endloop
  endfacet
  facet normal 0 0 -1
    outer loop
      vertex 34.4001 -25 0
      vertex 42.5 -16.9001 0
      vertex 42.4003 -18.1671 0
    endloop
  endfacet
  facet normal 0 0 -1
    outer loop
      vertex 42.5 -16.9001 0
      vertex 6.9 -12.95 0
      vertex 42.5 16.9001 0
    endloop
  endfacet
  facet normal 0 0 -1
    outer loop
      vertex 34.4001 -25 0
      vertex 42.4003 -18.1671 0
      vertex 42.1036 -19.403 0
    endloop
  endfacet
  facet normal 0 0 -1
    outer loop
      vertex 6.9 12.95 0
      vertex 42.5 16.9001 0
      vertex 6.9 -12.95 0
    endloop
  endfacet
  facet normal 0 0 -1
    outer loop
      vertex 34.4001 -25 0
      vertex 42.1036 -19.403 0
      vertex 41.6172 -20.5773 0
    endloop
  endfacet
  facet normal 0 -0 -1
    outer loop
      vertex 34.4001 25 0
      vertex 42.5 16.9001 0
      vertex 6.9 12.95 0
    endloop
  endfacet
  facet normal 0 0 -1
    outer loop
      vertex 34.4001 -25 0
      vertex 41.6172 -20.5773 0
      vertex 40.953 -21.6611 0
    endloop
  endfacet
  facet normal 0 0 -1
    outer loop
      vertex 42.5 16.9001 0
      vertex 34.4001 25 0
      vertex 42.4003 18.1671 0
    endloop
  endfacet
  facet normal 0 0 -1
    outer loop
      vertex 34.4001 -25 0
      vertex 40.953 -21.6611 0
      vertex 40.1276 -22.6276 0
    endloop
  endfacet
  facet normal 0 0 -1
    outer loop
      vertex 42.4003 18.1671 0
      vertex 34.4001 25 0
      vertex 42.1036 19.403 0
    endloop
  endfacet
  facet normal 0 0 -1
    outer loop
      vertex 34.4001 -25 0
      vertex 40.1276 -22.6276 0
      vertex 39.1611 -23.453 0
    endloop
  endfacet
  facet normal -0 0 -1
    outer loop
      vertex 42.5 -16.9001 0
      vertex 34.4001 -25 0
      vertex 6.9 -12.95 0
    endloop
  endfacet
  facet normal 0 0 -1
    outer loop
      vertex 34.4001 -25 0
      vertex 39.1611 -23.453 0
      vertex 38.0773 -24.1172 0
    endloop
  endfacet
  facet normal 0 0 -1
    outer loop
      vertex 42.1036 19.403 0
      vertex 34.4001 25 0
      vertex 41.6172 20.5773 0
    endloop
  endfacet
  facet normal 0 0 -1
    outer loop
      vertex 34.4001 -25 0
      vertex 38.0773 -24.1172 0
      vertex 36.903 -24.6036 0
    endloop
  endfacet
  facet normal 0 0 -1
    outer loop
      vertex 40.1276 22.6276 0
      vertex 34.4001 25 0
      vertex 39.1611 23.453 0
    endloop
  endfacet
  facet normal 0 0 -1
    outer loop
      vertex 34.4001 -25 0
      vertex 36.903 -24.6036 0
      vertex 35.6671 -24.9003 0
    endloop
  endfacet
  facet normal 0 0 -1
    outer loop
      vertex 39.1611 23.453 0
      vertex 34.4001 25 0
      vertex 38.0773 24.1172 0
    endloop
  endfacet
  facet normal 0 0 -1
    outer loop
      vertex 38.0773 24.1172 0
      vertex 34.4001 25 0
      vertex 36.903 24.6036 0
    endloop
  endfacet
  facet normal 0 0 -1
    outer loop
      vertex 36.903 24.6036 0
      vertex 34.4001 25 0
      vertex 35.6671 24.9003 0
    endloop
  endfacet
  facet normal 0 0 -1
    outer loop
      vertex 6.9 -12.95 0
      vertex 34.4001 -25 0
      vertex 6.9 -23.35 0
    endloop
  endfacet
  facet normal 0 0 -1
    outer loop
      vertex 2.5 -25 0
      vertex 6.9 -23.35 0
      vertex 34.4001 -25 0
    endloop
  endfacet
  facet normal -0 0 -1
    outer loop
      vertex 6.9 -23.35 0
      vertex 2.5 -25 0
      vertex 2.5 -23.35 0
    endloop
  endfacet
  facet normal 0 0 -1
    outer loop
      vertex 41.6172 20.5773 0
      vertex 34.4001 25 0
      vertex 40.953 21.6611 0
    endloop
  endfacet
  facet normal 0 0 -1
    outer loop
      vertex 40.953 21.6611 0
      vertex 34.4001 25 0
      vertex 40.1276 22.6276 0
    endloop
  endfacet
  facet normal 0 0 -1
    outer loop
      vertex 6.9 23.35 0
      vertex 34.4001 25 0
      vertex 6.9 12.95 0
    endloop
  endfacet
  facet normal 0 0 -1
    outer loop
      vertex 2.5 25 0
      vertex 6.9 23.35 0
      vertex 2.5 23.35 0
    endloop
  endfacet
  facet normal 0 0 -1
    outer loop
      vertex 6.9 23.35 0
      vertex 2.5 25 0
      vertex 34.4001 25 0
    endloop
  endfacet
  facet normal 0.0784473 0.996918 -0
    outer loop
      vertex 35.6671 24.9003 0
      vertex 34.4001 25 15
      vertex 35.6671 24.9003 15
    endloop
  endfacet
  facet normal 0.0784473 0.996918 0
    outer loop
      vertex 34.4001 25 15
      vertex 35.6671 24.9003 0
      vertex 34.4001 25 0
    endloop
  endfacet
  facet normal 0 1 -0
    outer loop
      vertex 34.4001 25 0
      vertex 2.5 25 15
      vertex 34.4001 25 15
    endloop
  endfacet
  facet normal 0 1 0
    outer loop
      vertex 2.5 25 15
      vertex 34.4001 25 0
      vertex 2.5 25 0
    endloop
  endfacet
  facet normal 0.649417 0.760433 -0
    outer loop
      vertex 40.1276 22.6276 0
      vertex 39.1611 23.453 15
      vertex 40.1276 22.6276 15
    endloop
  endfacet
  facet normal 0.649417 0.760433 0
    outer loop
      vertex 39.1611 23.453 15
      vertex 40.1276 22.6276 0
      vertex 39.1611 23.453 0
    endloop
  endfacet
  facet normal 0.852624 -0.522525 0
    outer loop
      vertex 40.953 -21.6611 15
      vertex 41.6172 -20.5773 0
      vertex 41.6172 -20.5773 15
    endloop
  endfacet
  facet normal 0.852624 -0.522525 0
    outer loop
      vertex 41.6172 -20.5773 0
      vertex 40.953 -21.6611 15
      vertex 40.953 -21.6611 0
    endloop
  endfacet
  facet normal 0.923883 -0.382676 0
    outer loop
      vertex 41.6172 -20.5773 15
      vertex 42.1036 -19.403 0
      vertex 42.1036 -19.403 15
    endloop
  endfacet
  facet normal 0.923883 -0.382676 0
    outer loop
      vertex 42.1036 -19.403 0
      vertex 41.6172 -20.5773 15
      vertex 41.6172 -20.5773 0
    endloop
  endfacet
  facet normal 0.0784473 -0.996918 0
    outer loop
      vertex 34.4001 -25 0
      vertex 35.6671 -24.9003 15
      vertex 34.4001 -25 15
    endloop
  endfacet
  facet normal 0.0784473 -0.996918 0
    outer loop
      vertex 35.6671 -24.9003 15
      vertex 34.4001 -25 0
      vertex 35.6671 -24.9003 0
    endloop
  endfacet
  facet normal 0.233435 0.972372 -0
    outer loop
      vertex 36.903 24.6036 0
      vertex 35.6671 24.9003 15
      vertex 36.903 24.6036 15
    endloop
  endfacet
  facet normal 0.233435 0.972372 0
    outer loop
      vertex 35.6671 24.9003 15
      vertex 36.903 24.6036 0
      vertex 35.6671 24.9003 0
    endloop
  endfacet
  facet normal 0.760433 0.649417 0
    outer loop
      vertex 40.953 21.6611 15
      vertex 40.1276 22.6276 0
      vertex 40.1276 22.6276 15
    endloop
  endfacet
  facet normal 0.760433 0.649417 0
    outer loop
      vertex 40.1276 22.6276 0
      vertex 40.953 21.6611 15
      vertex 40.953 21.6611 0
    endloop
  endfacet
  facet normal 0.760433 -0.649417 0
    outer loop
      vertex 40.1276 -22.6276 15
      vertex 40.953 -21.6611 0
      vertex 40.953 -21.6611 15
    endloop
  endfacet
  facet normal 0.760433 -0.649417 0
    outer loop
      vertex 40.953 -21.6611 0
      vertex 40.1276 -22.6276 15
      vertex 40.1276 -22.6276 0
    endloop
  endfacet
  facet normal -0 0 1
    outer loop
      vertex 40.2536 17.553 15
      vertex 42.5 16.9001 15
      vertex 42.4003 18.1671 15
    endloop
  endfacet
  facet normal 0 0 1
    outer loop
      vertex 42.5 16.9001 15
      vertex 40.65 15.0501 15
      vertex 42.5 -16.9001 15
    endloop
  endfacet
  facet normal 0 0 1
    outer loop
      vertex 40.2536 17.553 15
      vertex 42.4003 18.1671 15
      vertex 42.1036 19.403 15
    endloop
  endfacet
  facet normal -0 0 1
    outer loop
      vertex 40.65 -15.0501 15
      vertex 42.5 -16.9001 15
      vertex 40.65 15.0501 15
    endloop
  endfacet
  facet normal 0 0 1
    outer loop
      vertex 39.7672 18.7273 15
      vertex 42.1036 19.403 15
      vertex 41.6172 20.5773 15
    endloop
  endfacet
  facet normal -0 0 1
    outer loop
      vertex 40.5503 -16.3171 15
      vertex 42.5 -16.9001 15
      vertex 40.65 -15.0501 15
    endloop
  endfacet
  facet normal 0 0 1
    outer loop
      vertex 39.103 19.8111 15
      vertex 41.6172 20.5773 15
      vertex 40.953 21.6611 15
    endloop
  endfacet
  facet normal 0 0 1
    outer loop
      vertex 40.2536 -17.553 15
      vertex 42.5 -16.9001 15
      vertex 40.5503 -16.3171 15
    endloop
  endfacet
  facet normal 0 0 1
    outer loop
      vertex 42.5 -16.9001 15
      vertex 40.2536 -17.553 15
      vertex 42.4003 -18.1671 15
    endloop
  endfacet
  facet normal 0 0 1
    outer loop
      vertex 42.5 16.9001 15
      vertex 40.5503 16.3171 15
      vertex 40.65 15.0501 15
    endloop
  endfacet
  facet normal 0 0 1
    outer loop
      vertex 42.5 16.9001 15
      vertex 40.2536 17.553 15
      vertex 40.5503 16.3171 15
    endloop
  endfacet
  facet normal 0 0 1
    outer loop
      vertex 38.2776 20.7776 15
      vertex 40.953 21.6611 15
      vertex 40.1276 22.6276 15
    endloop
  endfacet
  facet normal 0 0 1
    outer loop
      vertex 42.1036 19.403 15
      vertex 39.7672 18.7273 15
      vertex 40.2536 17.553 15
    endloop
  endfacet
  facet normal 0 0 1
    outer loop
      vertex 38.2776 20.7776 15
      vertex 40.1276 22.6276 15
      vertex 39.1611 23.453 15
    endloop
  endfacet
  facet normal 0 0 1
    outer loop
      vertex 41.6172 20.5773 15
      vertex 39.103 19.8111 15
      vertex 39.7672 18.7273 15
    endloop
  endfacet
  facet normal 0 0 1
    outer loop
      vertex 40.953 21.6611 15
      vertex 38.2776 20.7776 15
      vertex 39.103 19.8111 15
    endloop
  endfacet
  facet normal 0 0 1
    outer loop
      vertex 37.3111 21.603 15
      vertex 39.1611 23.453 15
      vertex 38.0773 24.1172 15
    endloop
  endfacet
  facet normal 0 0 1
    outer loop
      vertex 39.1611 23.453 15
      vertex 37.3111 21.603 15
      vertex 38.2776 20.7776 15
    endloop
  endfacet
  facet normal 0 0 1
    outer loop
      vertex 36.2273 22.2672 15
      vertex 38.0773 24.1172 15
      vertex 36.903 24.6036 15
    endloop
  endfacet
  facet normal 0 0 1
    outer loop
      vertex 38.0773 24.1172 15
      vertex 36.2273 22.2672 15
      vertex 37.3111 21.603 15
    endloop
  endfacet
  facet normal 0 0 1
    outer loop
      vertex 35.053 22.7536 15
      vertex 36.903 24.6036 15
      vertex 35.6671 24.9003 15
    endloop
  endfacet
  facet normal 0 0 1
    outer loop
      vertex 36.903 24.6036 15
      vertex 35.053 22.7536 15
      vertex 36.2273 22.2672 15
    endloop
  endfacet
  facet normal 0 0 1
    outer loop
      vertex 34.4001 25 15
      vertex 35.053 22.7536 15
      vertex 35.6671 24.9003 15
    endloop
  endfacet
  facet normal 0 0 1
    outer loop
      vertex 34.4001 25 15
      vertex 33.8171 23.0503 15
      vertex 35.053 22.7536 15
    endloop
  endfacet
  facet normal 0 0 1
    outer loop
      vertex 34.4001 25 15
      vertex 32.5501 23.15 15
      vertex 33.8171 23.0503 15
    endloop
  endfacet
  facet normal -0 0 1
    outer loop
      vertex 2.5 25 15
      vertex 32.5501 23.15 15
      vertex 34.4001 25 15
    endloop
  endfacet
  facet normal 0 0 1
    outer loop
      vertex 32.5501 23.15 15
      vertex 2.5 25 15
      vertex 2.5 23.15 15
    endloop
  endfacet
  facet normal 0 0 1
    outer loop
      vertex 42.4003 -18.1671 15
      vertex 40.2536 -17.553 15
      vertex 42.1036 -19.403 15
    endloop
  endfacet
  facet normal -0 0 1
    outer loop
      vertex 39.7672 -18.7273 15
      vertex 42.1036 -19.403 15
      vertex 40.2536 -17.553 15
    endloop
  endfacet
  facet normal 0 0 1
    outer loop
      vertex 42.1036 -19.403 15
      vertex 39.7672 -18.7273 15
      vertex 41.6172 -20.5773 15
    endloop
  endfacet
  facet normal -0 0 1
    outer loop
      vertex 39.103 -19.8111 15
      vertex 41.6172 -20.5773 15
      vertex 39.7672 -18.7273 15
    endloop
  endfacet
  facet normal 0 0 1
    outer loop
      vertex 41.6172 -20.5773 15
      vertex 39.103 -19.8111 15
      vertex 40.953 -21.6611 15
    endloop
  endfacet
  facet normal -0 0 1
    outer loop
      vertex 38.2776 -20.7776 15
      vertex 40.953 -21.6611 15
      vertex 39.103 -19.8111 15
    endloop
  endfacet
  facet normal 0 0 1
    outer loop
      vertex 40.953 -21.6611 15
      vertex 38.2776 -20.7776 15
      vertex 40.1276 -22.6276 15
    endloop
  endfacet
  facet normal 0 0 1
    outer loop
      vertex 40.1276 -22.6276 15
      vertex 38.2776 -20.7776 15
      vertex 39.1611 -23.453 15
    endloop
  endfacet
  facet normal -0 0 1
    outer loop
      vertex 37.3111 -21.603 15
      vertex 39.1611 -23.453 15
      vertex 38.2776 -20.7776 15
    endloop
  endfacet
  facet normal 0 0 1
    outer loop
      vertex 39.1611 -23.453 15
      vertex 37.3111 -21.603 15
      vertex 38.0773 -24.1172 15
    endloop
  endfacet
  facet normal -0 0 1
    outer loop
      vertex 36.2273 -22.2672 15
      vertex 38.0773 -24.1172 15
      vertex 37.3111 -21.603 15
    endloop
  endfacet
  facet normal 0 0 1
    outer loop
      vertex 38.0773 -24.1172 15
      vertex 36.2273 -22.2672 15
      vertex 36.903 -24.6036 15
    endloop
  endfacet
  facet normal -0 0 1
    outer loop
      vertex 35.053 -22.7536 15
      vertex 36.903 -24.6036 15
      vertex 36.2273 -22.2672 15
    endloop
  endfacet
  facet normal 0 0 1
    outer loop
      vertex 36.903 -24.6036 15
      vertex 35.053 -22.7536 15
      vertex 35.6671 -24.9003 15
    endloop
  endfacet
  facet normal 0 0 1
    outer loop
      vertex 35.053 -22.7536 15
      vertex 34.4001 -25 15
      vertex 35.6671 -24.9003 15
    endloop
  endfacet
  facet normal -0 0 1
    outer loop
      vertex 33.8171 -23.0503 15
      vertex 34.4001 -25 15
      vertex 35.053 -22.7536 15
    endloop
  endfacet
  facet normal -0 0 1
    outer loop
      vertex 32.5501 -23.15 15
      vertex 34.4001 -25 15
      vertex 33.8171 -23.0503 15
    endloop
  endfacet
  facet normal 0 0 1
    outer loop
      vertex 2.5 -25 15
      vertex 32.5501 -23.15 15
      vertex 2.5 -23.15 15
    endloop
  endfacet
  facet normal 0 0 1
    outer loop
      vertex 32.5501 -23.15 15
      vertex 2.5 -25 15
      vertex 34.4001 -25 15
    endloop
  endfacet
  facet normal 0.382676 0.923883 -0
    outer loop
      vertex 38.0773 24.1172 0
      vertex 36.903 24.6036 15
      vertex 38.0773 24.1172 15
    endloop
  endfacet
  facet normal 0.382676 0.923883 0
    outer loop
      vertex 36.903 24.6036 15
      vertex 38.0773 24.1172 0
      vertex 36.903 24.6036 0
    endloop
  endfacet
  facet normal 0.522525 0.852624 -0
    outer loop
      vertex 39.1611 23.453 0
      vertex 38.0773 24.1172 15
      vertex 39.1611 23.453 15
    endloop
  endfacet
  facet normal 0.522525 0.852624 0
    outer loop
      vertex 38.0773 24.1172 15
      vertex 39.1611 23.453 0
      vertex 38.0773 24.1172 0
    endloop
  endfacet
  facet normal 0.522525 -0.852624 0
    outer loop
      vertex 38.0773 -24.1172 0
      vertex 39.1611 -23.453 15
      vertex 38.0773 -24.1172 15
    endloop
  endfacet
  facet normal 0.522525 -0.852624 0
    outer loop
      vertex 39.1611 -23.453 15
      vertex 38.0773 -24.1172 0
      vertex 39.1611 -23.453 0
    endloop
  endfacet
  facet normal 0.382676 -0.923883 0
    outer loop
      vertex 36.903 -24.6036 0
      vertex 38.0773 -24.1172 15
      vertex 36.903 -24.6036 15
    endloop
  endfacet
  facet normal 0.382676 -0.923883 0
    outer loop
      vertex 38.0773 -24.1172 15
      vertex 36.903 -24.6036 0
      vertex 38.0773 -24.1172 0
    endloop
  endfacet
  facet normal 0.233435 -0.972372 0
    outer loop
      vertex 35.6671 -24.9003 0
      vertex 36.903 -24.6036 15
      vertex 35.6671 -24.9003 15
    endloop
  endfacet
  facet normal 0.233435 -0.972372 0
    outer loop
      vertex 36.903 -24.6036 15
      vertex 35.6671 -24.9003 0
      vertex 36.903 -24.6036 0
    endloop
  endfacet
  facet normal 0.649417 -0.760433 0
    outer loop
      vertex 39.1611 -23.453 0
      vertex 40.1276 -22.6276 15
      vertex 39.1611 -23.453 15
    endloop
  endfacet
  facet normal 0.649417 -0.760433 0
    outer loop
      vertex 40.1276 -22.6276 15
      vertex 39.1611 -23.453 0
      vertex 40.1276 -22.6276 0
    endloop
  endfacet
  facet normal 0.923883 0.382676 0
    outer loop
      vertex 42.1036 19.403 15
      vertex 41.6172 20.5773 0
      vertex 41.6172 20.5773 15
    endloop
  endfacet
  facet normal 0.923883 0.382676 0
    outer loop
      vertex 41.6172 20.5773 0
      vertex 42.1036 19.403 15
      vertex 42.1036 19.403 0
    endloop
  endfacet
  facet normal 0.972372 0.233435 0
    outer loop
      vertex 42.4003 18.1671 15
      vertex 42.1036 19.403 0
      vertex 42.1036 19.403 15
    endloop
  endfacet
  facet normal 0.972372 0.233435 0
    outer loop
      vertex 42.1036 19.403 0
      vertex 42.4003 18.1671 15
      vertex 42.4003 18.1671 0
    endloop
  endfacet
  facet normal 0.996918 -0.0784473 0
    outer loop
      vertex 42.4003 -18.1671 15
      vertex 42.5 -16.9001 0
      vertex 42.5 -16.9001 15
    endloop
  endfacet
  facet normal 0.996918 -0.0784473 0
    outer loop
      vertex 42.5 -16.9001 0
      vertex 42.4003 -18.1671 15
      vertex 42.4003 -18.1671 0
    endloop
  endfacet
  facet normal 0.972372 -0.233435 0
    outer loop
      vertex 42.1036 -19.403 15
      vertex 42.4003 -18.1671 0
      vertex 42.4003 -18.1671 15
    endloop
  endfacet
  facet normal 0.972372 -0.233435 0
    outer loop
      vertex 42.4003 -18.1671 0
      vertex 42.1036 -19.403 15
      vertex 42.1036 -19.403 0
    endloop
  endfacet
  facet normal -0.382676 -0.923883 0
    outer loop
      vertex 35.053 22.7536 1.85
      vertex 36.2273 22.2672 15
      vertex 35.053 22.7536 15
    endloop
  endfacet
  facet normal -0.382676 -0.923883 -0
    outer loop
      vertex 36.2273 22.2672 15
      vertex 35.053 22.7536 1.85
      vertex 36.2273 22.2672 1.85
    endloop
  endfacet
  facet normal 0 1 0
    outer loop
      vertex 32.5501 -23.15 15
      vertex 6.9 -23.15 2.645
      vertex 2.5 -23.15 15
    endloop
  endfacet
  facet normal 0 1 -0
    outer loop
      vertex 32.5501 -23.15 1.85
      vertex 6.9 -23.15 2.645
      vertex 32.5501 -23.15 15
    endloop
  endfacet
  facet normal 0 1 0
    outer loop
      vertex 6.9 -23.15 2.645
      vertex 32.5501 -23.15 1.85
      vertex 6.9 -23.15 1.85
    endloop
  endfacet
  facet normal 0 1 0
    outer loop
      vertex 2.5 -23.15 15
      vertex 6.9 -23.15 2.645
      vertex 2.5 -23.15 2.645
    endloop
  endfacet
  facet normal -0.522525 -0.852624 0
    outer loop
      vertex 36.2273 22.2672 1.85
      vertex 37.3111 21.603 15
      vertex 36.2273 22.2672 15
    endloop
  endfacet
  facet normal -0.522525 -0.852624 -0
    outer loop
      vertex 37.3111 21.603 15
      vertex 36.2273 22.2672 1.85
      vertex 37.3111 21.603 1.85
    endloop
  endfacet
  facet normal -0.0784473 -0.996918 0
    outer loop
      vertex 32.5501 23.15 1.85
      vertex 33.8171 23.0503 15
      vertex 32.5501 23.15 15
    endloop
  endfacet
  facet normal -0.0784473 -0.996918 -0
    outer loop
      vertex 33.8171 23.0503 15
      vertex 32.5501 23.15 1.85
      vertex 33.8171 23.0503 1.85
    endloop
  endfacet
  facet normal 0 -1 0
    outer loop
      vertex 6.9 23.15 2.645
      vertex 2.5 23.15 15
      vertex 2.5 23.15 2.645
    endloop
  endfacet
  facet normal 0 -1 0
    outer loop
      vertex 2.5 23.15 15
      vertex 6.9 23.15 2.645
      vertex 32.5501 23.15 15
    endloop
  endfacet
  facet normal 0 -1 0
    outer loop
      vertex 32.5501 23.15 1.85
      vertex 6.9 23.15 2.645
      vertex 6.9 23.15 1.85
    endloop
  endfacet
  facet normal 0 -1 0
    outer loop
      vertex 6.9 23.15 2.645
      vertex 32.5501 23.15 1.85
      vertex 32.5501 23.15 15
    endloop
  endfacet
  facet normal -0.760433 -0.649417 0
    outer loop
      vertex 39.103 19.8111 1.85
      vertex 38.2776 20.7776 15
      vertex 38.2776 20.7776 1.85
    endloop
  endfacet
  facet normal -0.760433 -0.649417 0
    outer loop
      vertex 38.2776 20.7776 15
      vertex 39.103 19.8111 1.85
      vertex 39.103 19.8111 15
    endloop
  endfacet
  facet normal -1 0 0
    outer loop
      vertex 40.65 -15.0501 1.85
      vertex 40.65 15.0501 15
      vertex 40.65 15.0501 1.85
    endloop
  endfacet
  facet normal -1 -0 0
    outer loop
      vertex 40.65 15.0501 15
      vertex 40.65 -15.0501 1.85
      vertex 40.65 -15.0501 15
    endloop
  endfacet
  facet normal -0.996918 -0.0784473 0
    outer loop
      vertex 40.65 15.0501 1.85
      vertex 40.5503 16.3171 15
      vertex 40.5503 16.3171 1.85
    endloop
  endfacet
  facet normal -0.996918 -0.0784473 0
    outer loop
      vertex 40.5503 16.3171 15
      vertex 40.65 15.0501 1.85
      vertex 40.65 15.0501 15
    endloop
  endfacet
  facet normal -0.522525 0.852624 0
    outer loop
      vertex 37.3111 -21.603 1.85
      vertex 36.2273 -22.2672 15
      vertex 37.3111 -21.603 15
    endloop
  endfacet
  facet normal -0.522525 0.852624 0
    outer loop
      vertex 36.2273 -22.2672 15
      vertex 37.3111 -21.603 1.85
      vertex 36.2273 -22.2672 1.85
    endloop
  endfacet
  facet normal -0.382676 0.923883 0
    outer loop
      vertex 36.2273 -22.2672 1.85
      vertex 35.053 -22.7536 15
      vertex 36.2273 -22.2672 15
    endloop
  endfacet
  facet normal -0.382676 0.923883 0
    outer loop
      vertex 35.053 -22.7536 15
      vertex 36.2273 -22.2672 1.85
      vertex 35.053 -22.7536 1.85
    endloop
  endfacet
  facet normal -0.233435 -0.972372 0
    outer loop
      vertex 33.8171 23.0503 1.85
      vertex 35.053 22.7536 15
      vertex 33.8171 23.0503 15
    endloop
  endfacet
  facet normal -0.233435 -0.972372 -0
    outer loop
      vertex 35.053 22.7536 15
      vertex 33.8171 23.0503 1.85
      vertex 35.053 22.7536 1.85
    endloop
  endfacet
  facet normal -0.852624 -0.522525 0
    outer loop
      vertex 39.7672 18.7273 1.85
      vertex 39.103 19.8111 15
      vertex 39.103 19.8111 1.85
    endloop
  endfacet
  facet normal -0.852624 -0.522525 0
    outer loop
      vertex 39.103 19.8111 15
      vertex 39.7672 18.7273 1.85
      vertex 39.7672 18.7273 15
    endloop
  endfacet
  facet normal -0.923883 0.382676 0
    outer loop
      vertex 39.7672 -18.7273 1.85
      vertex 40.2536 -17.553 15
      vertex 40.2536 -17.553 1.85
    endloop
  endfacet
  facet normal -0.923883 0.382676 0
    outer loop
      vertex 40.2536 -17.553 15
      vertex 39.7672 -18.7273 1.85
      vertex 39.7672 -18.7273 15
    endloop
  endfacet
  facet normal -0 0 1
    outer loop
      vertex 2.5 12.95 1.85
      vertex 6.9 -12.95 1.85
      vertex 6.9 12.95 1.85
    endloop
  endfacet
  facet normal 0 0 1
    outer loop
      vertex 6.9 -12.95 1.85
      vertex 2.5 12.95 1.85
      vertex 2.5 -12.95 1.85
    endloop
  endfacet
  facet normal 0 0 1
    outer loop
      vertex 32.5501 23.15 1.85
      vertex 40.65 15.0501 1.85
      vertex 40.5503 16.3171 1.85
    endloop
  endfacet
  facet normal 0 0 1
    outer loop
      vertex 40.65 15.0501 1.85
      vertex 6.9 12.95 1.85
      vertex 40.65 -15.0501 1.85
    endloop
  endfacet
  facet normal 0 0 1
    outer loop
      vertex 32.5501 23.15 1.85
      vertex 40.5503 16.3171 1.85
      vertex 40.2536 17.553 1.85
    endloop
  endfacet
  facet normal -0 0 1
    outer loop
      vertex 6.9 -12.95 1.85
      vertex 40.65 -15.0501 1.85
      vertex 6.9 12.95 1.85
    endloop
  endfacet
  facet normal 0 0 1
    outer loop
      vertex 32.5501 23.15 1.85
      vertex 40.2536 17.553 1.85
      vertex 39.7672 18.7273 1.85
    endloop
  endfacet
  facet normal 0 -0 1
    outer loop
      vertex 32.5501 -23.15 1.85
      vertex 40.65 -15.0501 1.85
      vertex 6.9 -12.95 1.85
    endloop
  endfacet
  facet normal 0 0 1
    outer loop
      vertex 32.5501 23.15 1.85
      vertex 39.7672 18.7273 1.85
      vertex 39.103 19.8111 1.85
    endloop
  endfacet
  facet normal 0 0 1
    outer loop
      vertex 40.65 -15.0501 1.85
      vertex 32.5501 -23.15 1.85
      vertex 40.5503 -16.3171 1.85
    endloop
  endfacet
  facet normal 0 0 1
    outer loop
      vertex 32.5501 23.15 1.85
      vertex 39.103 19.8111 1.85
      vertex 38.2776 20.7776 1.85
    endloop
  endfacet
  facet normal 0 0 1
    outer loop
      vertex 40.5503 -16.3171 1.85
      vertex 32.5501 -23.15 1.85
      vertex 40.2536 -17.553 1.85
    endloop
  endfacet
  facet normal 0 0 1
    outer loop
      vertex 32.5501 23.15 1.85
      vertex 38.2776 20.7776 1.85
      vertex 37.3111 21.603 1.85
    endloop
  endfacet
  facet normal 0 0 1
    outer loop
      vertex 40.65 15.0501 1.85
      vertex 32.5501 23.15 1.85
      vertex 6.9 12.95 1.85
    endloop
  endfacet
  facet normal 0 0 1
    outer loop
      vertex 32.5501 23.15 1.85
      vertex 37.3111 21.603 1.85
      vertex 36.2273 22.2672 1.85
    endloop
  endfacet
  facet normal 0 0 1
    outer loop
      vertex 40.2536 -17.553 1.85
      vertex 32.5501 -23.15 1.85
      vertex 39.7672 -18.7273 1.85
    endloop
  endfacet
  facet normal 0 0 1
    outer loop
      vertex 32.5501 23.15 1.85
      vertex 36.2273 22.2672 1.85
      vertex 35.053 22.7536 1.85
    endloop
  endfacet
  facet normal 0 0 1
    outer loop
      vertex 38.2776 -20.7776 1.85
      vertex 32.5501 -23.15 1.85
      vertex 37.3111 -21.603 1.85
    endloop
  endfacet
  facet normal 0 0 1
    outer loop
      vertex 32.5501 23.15 1.85
      vertex 35.053 22.7536 1.85
      vertex 33.8171 23.0503 1.85
    endloop
  endfacet
  facet normal 0 0 1
    outer loop
      vertex 37.3111 -21.603 1.85
      vertex 32.5501 -23.15 1.85
      vertex 36.2273 -22.2672 1.85
    endloop
  endfacet
  facet normal 0 0 1
    outer loop
      vertex 36.2273 -22.2672 1.85
      vertex 32.5501 -23.15 1.85
      vertex 35.053 -22.7536 1.85
    endloop
  endfacet
  facet normal 0 0 1
    outer loop
      vertex 35.053 -22.7536 1.85
      vertex 32.5501 -23.15 1.85
      vertex 33.8171 -23.0503 1.85
    endloop
  endfacet
  facet normal 0 0 1
    outer loop
      vertex 6.9 12.95 1.85
      vertex 32.5501 23.15 1.85
      vertex 6.9 23.15 1.85
    endloop
  endfacet
  facet normal 0 0 1
    outer loop
      vertex 39.7672 -18.7273 1.85
      vertex 32.5501 -23.15 1.85
      vertex 39.103 -19.8111 1.85
    endloop
  endfacet
  facet normal 0 0 1
    outer loop
      vertex 39.103 -19.8111 1.85
      vertex 32.5501 -23.15 1.85
      vertex 38.2776 -20.7776 1.85
    endloop
  endfacet
  facet normal 0 0 1
    outer loop
      vertex 32.5501 -23.15 1.85
      vertex 6.9 -12.95 1.85
      vertex 6.9 -23.15 1.85
    endloop
  endfacet
  facet normal -0.649417 -0.760433 0
    outer loop
      vertex 37.3111 21.603 1.85
      vertex 38.2776 20.7776 15
      vertex 37.3111 21.603 15
    endloop
  endfacet
  facet normal -0.649417 -0.760433 -0
    outer loop
      vertex 38.2776 20.7776 15
      vertex 37.3111 21.603 1.85
      vertex 38.2776 20.7776 1.85
    endloop
  endfacet
  facet normal -0.923883 -0.382676 0
    outer loop
      vertex 40.2536 17.553 1.85
      vertex 39.7672 18.7273 15
      vertex 39.7672 18.7273 1.85
    endloop
  endfacet
  facet normal -0.923883 -0.382676 0
    outer loop
      vertex 39.7672 18.7273 15
      vertex 40.2536 17.553 1.85
      vertex 40.2536 17.553 15
    endloop
  endfacet
  facet normal -0.233435 0.972372 0
    outer loop
      vertex 35.053 -22.7536 1.85
      vertex 33.8171 -23.0503 15
      vertex 35.053 -22.7536 15
    endloop
  endfacet
  facet normal -0.233435 0.972372 0
    outer loop
      vertex 33.8171 -23.0503 15
      vertex 35.053 -22.7536 1.85
      vertex 33.8171 -23.0503 1.85
    endloop
  endfacet
  facet normal -0.0784473 0.996918 0
    outer loop
      vertex 33.8171 -23.0503 1.85
      vertex 32.5501 -23.15 15
      vertex 33.8171 -23.0503 15
    endloop
  endfacet
  facet normal -0.0784473 0.996918 0
    outer loop
      vertex 32.5501 -23.15 15
      vertex 33.8171 -23.0503 1.85
      vertex 32.5501 -23.15 1.85
    endloop
  endfacet
  facet normal -0.972372 -0.233435 0
    outer loop
      vertex 40.5503 16.3171 1.85
      vertex 40.2536 17.553 15
      vertex 40.2536 17.553 1.85
    endloop
  endfacet
  facet normal -0.972372 -0.233435 0
    outer loop
      vertex 40.2536 17.553 15
      vertex 40.5503 16.3171 1.85
      vertex 40.5503 16.3171 15
    endloop
  endfacet
  facet normal -0.852624 0.522525 0
    outer loop
      vertex 39.103 -19.8111 1.85
      vertex 39.7672 -18.7273 15
      vertex 39.7672 -18.7273 1.85
    endloop
  endfacet
  facet normal -0.852624 0.522525 0
    outer loop
      vertex 39.7672 -18.7273 15
      vertex 39.103 -19.8111 1.85
      vertex 39.103 -19.8111 15
    endloop
  endfacet
  facet normal -0.972372 0.233435 0
    outer loop
      vertex 40.2536 -17.553 1.85
      vertex 40.5503 -16.3171 15
      vertex 40.5503 -16.3171 1.85
    endloop
  endfacet
  facet normal -0.972372 0.233435 0
    outer loop
      vertex 40.5503 -16.3171 15
      vertex 40.2536 -17.553 1.85
      vertex 40.2536 -17.553 15
    endloop
  endfacet
  facet normal -0.760433 0.649417 0
    outer loop
      vertex 38.2776 -20.7776 1.85
      vertex 39.103 -19.8111 15
      vertex 39.103 -19.8111 1.85
    endloop
  endfacet
  facet normal -0.760433 0.649417 0
    outer loop
      vertex 39.103 -19.8111 15
      vertex 38.2776 -20.7776 1.85
      vertex 38.2776 -20.7776 15
    endloop
  endfacet
  facet normal -0.649417 0.760433 0
    outer loop
      vertex 38.2776 -20.7776 1.85
      vertex 37.3111 -21.603 15
      vertex 38.2776 -20.7776 15
    endloop
  endfacet
  facet normal -0.649417 0.760433 0
    outer loop
      vertex 37.3111 -21.603 15
      vertex 38.2776 -20.7776 1.85
      vertex 37.3111 -21.603 1.85
    endloop
  endfacet
  facet normal -0.996918 0.0784473 0
    outer loop
      vertex 40.5503 -16.3171 1.85
      vertex 40.65 -15.0501 15
      vertex 40.65 -15.0501 1.85
    endloop
  endfacet
  facet normal -0.996918 0.0784473 0
    outer loop
      vertex 40.65 -15.0501 15
      vertex 40.5503 -16.3171 1.85
      vertex 40.5503 -16.3171 15
    endloop
  endfacet
  facet normal 0 0 -1
    outer loop
      vertex 2.5 -23.35 2.645
      vertex 6.9 -23.15 2.645
      vertex 6.9 -23.35 2.645
    endloop
  endfacet
  facet normal -0 0 -1
    outer loop
      vertex 6.9 -23.15 2.645
      vertex 2.5 -23.35 2.645
      vertex 2.5 -23.15 2.645
    endloop
  endfacet
  facet normal -1 0 0
    outer loop
      vertex 6.9 -12.95 0
      vertex 6.9 -23.15 1.85
      vertex 6.9 -12.95 1.85
    endloop
  endfacet
  facet normal -1 0 0
    outer loop
      vertex 6.9 -23.35 0
      vertex 6.9 -23.15 1.85
      vertex 6.9 -12.95 0
    endloop
  endfacet
  facet normal -1 0 0
    outer loop
      vertex 6.9 -23.35 2.645
      vertex 6.9 -23.15 1.85
      vertex 6.9 -23.35 0
    endloop
  endfacet
  facet normal -1 0 0
    outer loop
      vertex 6.9 -23.15 1.85
      vertex 6.9 -23.35 2.645
      vertex 6.9 -23.15 2.645
    endloop
  endfacet
  facet normal 0 -1 0
    outer loop
      vertex 2.5 -12.95 0
      vertex 6.9 -12.95 1.85
      vertex 2.5 -12.95 1.85
    endloop
  endfacet
  facet normal 0 -1 -0
    outer loop
      vertex 6.9 -12.95 1.85
      vertex 2.5 -12.95 0
      vertex 6.9 -12.95 0
    endloop
  endfacet
  facet normal 0 1 -0
    outer loop
      vertex 6.9 -23.35 0
      vertex 2.5 -23.35 2.645
      vertex 6.9 -23.35 2.645
    endloop
  endfacet
  facet normal 0 1 0
    outer loop
      vertex 2.5 -23.35 2.645
      vertex 6.9 -23.35 0
      vertex 2.5 -23.35 0
    endloop
  endfacet
  facet normal 0 0 -1
    outer loop
      vertex 2.5 23.15 2.645
      vertex 6.9 23.35 2.645
      vertex 6.9 23.15 2.645
    endloop
  endfacet
  facet normal -0 0 -1
    outer loop
      vertex 6.9 23.35 2.645
      vertex 2.5 23.15 2.645
      vertex 2.5 23.35 2.645
    endloop
  endfacet
  facet normal -1 0 0
    outer loop
      vertex 6.9 23.35 0
      vertex 6.9 23.15 1.85
      vertex 6.9 23.35 2.645
    endloop
  endfacet
  facet normal -1 0 0
    outer loop
      vertex 6.9 12.95 0
      vertex 6.9 23.15 1.85
      vertex 6.9 23.35 0
    endloop
  endfacet
  facet normal -1 -0 0
    outer loop
      vertex 6.9 23.15 1.85
      vertex 6.9 12.95 0
      vertex 6.9 12.95 1.85
    endloop
  endfacet
  facet normal -1 -0 0
    outer loop
      vertex 6.9 23.35 2.645
      vertex 6.9 23.15 1.85
      vertex 6.9 23.15 2.645
    endloop
  endfacet
  facet normal 0 -1 0
    outer loop
      vertex 2.5 23.35 0
      vertex 6.9 23.35 2.645
      vertex 2.5 23.35 2.645
    endloop
  endfacet
  facet normal 0 -1 -0
    outer loop
      vertex 6.9 23.35 2.645
      vertex 2.5 23.35 0
      vertex 6.9 23.35 0
    endloop
  endfacet
  facet normal 0 1 -0
    outer loop
      vertex 6.9 12.95 0
      vertex 2.5 12.95 1.85
      vertex 6.9 12.95 1.85
    endloop
  endfacet
  facet normal 0 1 0
    outer loop
      vertex 2.5 12.95 1.85
      vertex 6.9 12.95 0
      vertex 2.5 12.95 0
    endloop
  endfacet
  facet normal -1 0 0
    outer loop
      vertex 2.5 23.35 2.645
      vertex 2.5 25 0
      vertex 2.5 23.35 0
    endloop
  endfacet
  facet normal -1 0 0
    outer loop
      vertex 2.5 25 0
      vertex 2.5 23.35 2.645
      vertex 2.5 25 15
    endloop
  endfacet
  facet normal -1 0 0
    outer loop
      vertex 2.5 23.15 15
      vertex 2.5 23.35 2.645
      vertex 2.5 23.15 2.645
    endloop
  endfacet
  facet normal -1 0 0
    outer loop
      vertex 2.5 23.35 2.645
      vertex 2.5 23.15 15
      vertex 2.5 25 15
    endloop
  endfacet
  facet normal -1 0 0
    outer loop
      vertex 2.5 -23.35 0
      vertex 2.5 -25 0
      vertex 2.5 -23.35 2.645
    endloop
  endfacet
  facet normal -1 0 0
    outer loop
      vertex 2.5 -23.35 2.645
      vertex 2.5 -23.15 15
      vertex 2.5 -23.15 2.645
    endloop
  endfacet
  facet normal -1 0 0
    outer loop
      vertex 2.5 -25 15
      vertex 2.5 -23.35 2.645
      vertex 2.5 -25 0
    endloop
  endfacet
  facet normal -1 0 0
    outer loop
      vertex 2.5 -23.35 2.645
      vertex 2.5 -25 15
      vertex 2.5 -23.15 15
    endloop
  endfacet
  facet normal -1 0 0
    outer loop
      vertex 2.5 -12.95 0
      vertex 2.5 12.95 1.85
      vertex 2.5 12.95 0
    endloop
  endfacet
  facet normal -1 -0 0
    outer loop
      vertex 2.5 12.95 1.85
      vertex 2.5 -12.95 0
      vertex 2.5 -12.95 1.85
    endloop
  endfacet
endsolid OpenSCAD_Model
