solid OpenSCAD_Model
  facet normal -0.522525 -0.852624 0
    outer loop
      vertex -88.6611 -42.953 0
      vertex -87.5773 -43.6172 11.1
      vertex -88.6611 -42.953 11.1
    endloop
  endfacet
  facet normal -0.522525 -0.852624 -0
    outer loop
      vertex -87.5773 -43.6172 11.1
      vertex -88.6611 -42.953 0
      vertex -87.5773 -43.6172 0
    endloop
  endfacet
  facet normal 0.382676 0.923883 -0
    outer loop
      vertex 87.5773 43.6172 0
      vertex 86.403 44.1036 11.1
      vertex 87.5773 43.6172 11.1
    endloop
  endfacet
  facet normal 0.382676 0.923883 0
    outer loop
      vertex 86.403 44.1036 11.1
      vertex 87.5773 43.6172 0
      vertex 86.403 44.1036 0
    endloop
  endfacet
  facet normal -0.382676 -0.923883 0
    outer loop
      vertex -87.5773 -43.6172 0
      vertex -86.403 -44.1036 11.1
      vertex -87.5773 -43.6172 11.1
    endloop
  endfacet
  facet normal -0.382676 -0.923883 -0
    outer loop
      vertex -86.403 -44.1036 11.1
      vertex -87.5773 -43.6172 0
      vertex -86.403 -44.1036 0
    endloop
  endfacet
  facet normal -0 0 1
    outer loop
      vertex 89.7462 36.9494 11.1
      vertex 92 36.4001 11.1
      vertex 91.9003 37.6671 11.1
    endloop
  endfacet
  facet normal 0 0 1
    outer loop
      vertex 92 36.4001 11.1
      vertex 90.15 34.4 11.1
      vertex 92 -36.4001 11.1
    endloop
  endfacet
  facet normal 0 0 1
    outer loop
      vertex 89.7462 36.9494 11.1
      vertex 91.9003 37.6671 11.1
      vertex 91.6036 38.903 11.1
    endloop
  endfacet
  facet normal -0 0 1
    outer loop
      vertex 90.15 -34.4 11.1
      vertex 92 -36.4001 11.1
      vertex 90.15 34.4 11.1
    endloop
  endfacet
  facet normal 0 0 1
    outer loop
      vertex 89.2508 38.1454 11.1
      vertex 91.6036 38.903 11.1
      vertex 91.1171 40.0773 11.1
    endloop
  endfacet
  facet normal -0 0 1
    outer loop
      vertex 90.0484 -35.6906 11.1
      vertex 92 -36.4001 11.1
      vertex 90.15 -34.4 11.1
    endloop
  endfacet
  facet normal 0 0 1
    outer loop
      vertex 88.5744 39.2492 11.1
      vertex 91.1171 40.0773 11.1
      vertex 90.453 41.1611 11.1
    endloop
  endfacet
  facet normal 0 0 1
    outer loop
      vertex 89.7462 -36.9494 11.1
      vertex 92 -36.4001 11.1
      vertex 90.0484 -35.6906 11.1
    endloop
  endfacet
  facet normal 0 0 1
    outer loop
      vertex 92 -36.4001 11.1
      vertex 89.7462 -36.9494 11.1
      vertex 91.9003 -37.6671 11.1
    endloop
  endfacet
  facet normal 0 0 1
    outer loop
      vertex 92 36.4001 11.1
      vertex 90.0484 35.6906 11.1
      vertex 90.15 34.4 11.1
    endloop
  endfacet
  facet normal 0 0 1
    outer loop
      vertex 92 36.4001 11.1
      vertex 89.7462 36.9494 11.1
      vertex 90.0484 35.6906 11.1
    endloop
  endfacet
  facet normal 0 0 1
    outer loop
      vertex 87.7336 40.2336 11.1
      vertex 90.453 41.1611 11.1
      vertex 89.6276 42.1276 11.1
    endloop
  endfacet
  facet normal 0 0 1
    outer loop
      vertex 91.6036 38.903 11.1
      vertex 89.2508 38.1454 11.1
      vertex 89.7462 36.9494 11.1
    endloop
  endfacet
  facet normal 0 0 1
    outer loop
      vertex 87.7336 40.2336 11.1
      vertex 89.6276 42.1276 11.1
      vertex 88.6611 42.953 11.1
    endloop
  endfacet
  facet normal 0 0 1
    outer loop
      vertex 91.1171 40.0773 11.1
      vertex 88.5744 39.2492 11.1
      vertex 89.2508 38.1454 11.1
    endloop
  endfacet
  facet normal 0 0 1
    outer loop
      vertex 90.453 41.1611 11.1
      vertex 87.7336 40.2336 11.1
      vertex 88.5744 39.2492 11.1
    endloop
  endfacet
  facet normal 0 0 1
    outer loop
      vertex 86.7492 41.0744 11.1
      vertex 88.6611 42.953 11.1
      vertex 87.5773 43.6172 11.1
    endloop
  endfacet
  facet normal 0 0 1
    outer loop
      vertex 88.6611 42.953 11.1
      vertex 86.7492 41.0744 11.1
      vertex 87.7336 40.2336 11.1
    endloop
  endfacet
  facet normal 0 0 1
    outer loop
      vertex 85.6454 41.7508 11.1
      vertex 87.5773 43.6172 11.1
      vertex 86.403 44.1036 11.1
    endloop
  endfacet
  facet normal 0 0 1
    outer loop
      vertex 87.5773 43.6172 11.1
      vertex 85.6454 41.7508 11.1
      vertex 86.7492 41.0744 11.1
    endloop
  endfacet
  facet normal 0 0 1
    outer loop
      vertex 85.1671 44.4003 11.1
      vertex 85.6454 41.7508 11.1
      vertex 86.403 44.1036 11.1
    endloop
  endfacet
  facet normal 0 0 1
    outer loop
      vertex 85.1671 44.4003 11.1
      vertex 84.4494 42.2462 11.1
      vertex 85.6454 41.7508 11.1
    endloop
  endfacet
  facet normal 0 0 1
    outer loop
      vertex 83.9001 44.5 11.1
      vertex 84.4494 42.2462 11.1
      vertex 85.1671 44.4003 11.1
    endloop
  endfacet
  facet normal 0 0 1
    outer loop
      vertex 83.9001 44.5 11.1
      vertex 83.1906 42.5484 11.1
      vertex 84.4494 42.2462 11.1
    endloop
  endfacet
  facet normal 0 0 1
    outer loop
      vertex 83.9001 44.5 11.1
      vertex 81.9 42.65 11.1
      vertex 83.1906 42.5484 11.1
    endloop
  endfacet
  facet normal 0 0 1
    outer loop
      vertex 83.9001 44.5 11.1
      vertex -81.9 42.65 11.1
      vertex 81.9 42.65 11.1
    endloop
  endfacet
  facet normal -0 0 1
    outer loop
      vertex -83.9001 44.5 11.1
      vertex -81.9 42.65 11.1
      vertex 83.9001 44.5 11.1
    endloop
  endfacet
  facet normal 0 0 1
    outer loop
      vertex -83.9001 44.5 11.1
      vertex -83.1906 42.5484 11.1
      vertex -81.9 42.65 11.1
    endloop
  endfacet
  facet normal 0 0 1
    outer loop
      vertex -83.9001 44.5 11.1
      vertex -84.4494 42.2462 11.1
      vertex -83.1906 42.5484 11.1
    endloop
  endfacet
  facet normal -0 0 1
    outer loop
      vertex -85.1671 44.4003 11.1
      vertex -84.4494 42.2462 11.1
      vertex -83.9001 44.5 11.1
    endloop
  endfacet
  facet normal 0 0 1
    outer loop
      vertex -85.1671 44.4003 11.1
      vertex -85.6454 41.7508 11.1
      vertex -84.4494 42.2462 11.1
    endloop
  endfacet
  facet normal -0 0 1
    outer loop
      vertex -86.403 44.1036 11.1
      vertex -85.6454 41.7508 11.1
      vertex -85.1671 44.4003 11.1
    endloop
  endfacet
  facet normal -0 0 1
    outer loop
      vertex -87.5773 43.6172 11.1
      vertex -85.6454 41.7508 11.1
      vertex -86.403 44.1036 11.1
    endloop
  endfacet
  facet normal 0 0 1
    outer loop
      vertex -85.6454 41.7508 11.1
      vertex -87.5773 43.6172 11.1
      vertex -86.7492 41.0744 11.1
    endloop
  endfacet
  facet normal -0 0 1
    outer loop
      vertex -88.6611 42.953 11.1
      vertex -86.7492 41.0744 11.1
      vertex -87.5773 43.6172 11.1
    endloop
  endfacet
  facet normal 0 0 1
    outer loop
      vertex -86.7492 41.0744 11.1
      vertex -88.6611 42.953 11.1
      vertex -87.7336 40.2336 11.1
    endloop
  endfacet
  facet normal -0 0 1
    outer loop
      vertex -89.6276 42.1276 11.1
      vertex -87.7336 40.2336 11.1
      vertex -88.6611 42.953 11.1
    endloop
  endfacet
  facet normal -0 0 1
    outer loop
      vertex -90.453 41.1611 11.1
      vertex -87.7336 40.2336 11.1
      vertex -89.6276 42.1276 11.1
    endloop
  endfacet
  facet normal 0 0 1
    outer loop
      vertex -87.7336 40.2336 11.1
      vertex -90.453 41.1611 11.1
      vertex -88.5744 39.2492 11.1
    endloop
  endfacet
  facet normal -0 0 1
    outer loop
      vertex -91.1171 40.0773 11.1
      vertex -88.5744 39.2492 11.1
      vertex -90.453 41.1611 11.1
    endloop
  endfacet
  facet normal 0 0 1
    outer loop
      vertex -88.5744 39.2492 11.1
      vertex -91.1171 40.0773 11.1
      vertex -89.2508 38.1454 11.1
    endloop
  endfacet
  facet normal -0 0 1
    outer loop
      vertex -91.6036 38.903 11.1
      vertex -89.2508 38.1454 11.1
      vertex -91.1171 40.0773 11.1
    endloop
  endfacet
  facet normal -0 0 1
    outer loop
      vertex -91.9003 37.6671 11.1
      vertex -89.7462 36.9494 11.1
      vertex -91.6036 38.903 11.1
    endloop
  endfacet
  facet normal 0 0 1
    outer loop
      vertex -89.2508 38.1454 11.1
      vertex -91.6036 38.903 11.1
      vertex -89.7462 36.9494 11.1
    endloop
  endfacet
  facet normal 0 0 1
    outer loop
      vertex 91.9003 -37.6671 11.1
      vertex 89.7462 -36.9494 11.1
      vertex 91.6036 -38.903 11.1
    endloop
  endfacet
  facet normal -0 0 1
    outer loop
      vertex 89.2508 -38.1454 11.1
      vertex 91.6036 -38.903 11.1
      vertex 89.7462 -36.9494 11.1
    endloop
  endfacet
  facet normal 0 0 1
    outer loop
      vertex 91.6036 -38.903 11.1
      vertex 89.2508 -38.1454 11.1
      vertex 91.1171 -40.0773 11.1
    endloop
  endfacet
  facet normal -0 0 1
    outer loop
      vertex 88.5744 -39.2492 11.1
      vertex 91.1171 -40.0773 11.1
      vertex 89.2508 -38.1454 11.1
    endloop
  endfacet
  facet normal 0 0 1
    outer loop
      vertex 91.1171 -40.0773 11.1
      vertex 88.5744 -39.2492 11.1
      vertex 90.453 -41.1611 11.1
    endloop
  endfacet
  facet normal -0 0 1
    outer loop
      vertex 87.7336 -40.2336 11.1
      vertex 90.453 -41.1611 11.1
      vertex 88.5744 -39.2492 11.1
    endloop
  endfacet
  facet normal 0 0 1
    outer loop
      vertex 90.453 -41.1611 11.1
      vertex 87.7336 -40.2336 11.1
      vertex 89.6276 -42.1276 11.1
    endloop
  endfacet
  facet normal 0 0 1
    outer loop
      vertex 89.6276 -42.1276 11.1
      vertex 87.7336 -40.2336 11.1
      vertex 88.6611 -42.953 11.1
    endloop
  endfacet
  facet normal -0 0 1
    outer loop
      vertex 86.7492 -41.0744 11.1
      vertex 88.6611 -42.953 11.1
      vertex 87.7336 -40.2336 11.1
    endloop
  endfacet
  facet normal 0 0 1
    outer loop
      vertex 88.6611 -42.953 11.1
      vertex 86.7492 -41.0744 11.1
      vertex 87.5773 -43.6172 11.1
    endloop
  endfacet
  facet normal -0 0 1
    outer loop
      vertex 85.6454 -41.7508 11.1
      vertex 87.5773 -43.6172 11.1
      vertex 86.7492 -41.0744 11.1
    endloop
  endfacet
  facet normal 0 0 1
    outer loop
      vertex 87.5773 -43.6172 11.1
      vertex 85.6454 -41.7508 11.1
      vertex 86.403 -44.1036 11.1
    endloop
  endfacet
  facet normal 0 0 1
    outer loop
      vertex 85.6454 -41.7508 11.1
      vertex 85.1671 -44.4003 11.1
      vertex 86.403 -44.1036 11.1
    endloop
  endfacet
  facet normal -0 0 1
    outer loop
      vertex 84.4494 -42.2462 11.1
      vertex 85.1671 -44.4003 11.1
      vertex 85.6454 -41.7508 11.1
    endloop
  endfacet
  facet normal 0 0 1
    outer loop
      vertex 84.4494 -42.2462 11.1
      vertex 83.9001 -44.5 11.1
      vertex 85.1671 -44.4003 11.1
    endloop
  endfacet
  facet normal -0 0 1
    outer loop
      vertex 83.1906 -42.5484 11.1
      vertex 83.9001 -44.5 11.1
      vertex 84.4494 -42.2462 11.1
    endloop
  endfacet
  facet normal -0 0 1
    outer loop
      vertex 81.9 -42.65 11.1
      vertex 83.9001 -44.5 11.1
      vertex 83.1906 -42.5484 11.1
    endloop
  endfacet
  facet normal -0 0 1
    outer loop
      vertex -81.9 -42.65 11.1
      vertex 83.9001 -44.5 11.1
      vertex 81.9 -42.65 11.1
    endloop
  endfacet
  facet normal 0 0 1
    outer loop
      vertex -81.9 -42.65 11.1
      vertex -83.9001 -44.5 11.1
      vertex 83.9001 -44.5 11.1
    endloop
  endfacet
  facet normal 0 0 1
    outer loop
      vertex -83.1906 -42.5484 11.1
      vertex -83.9001 -44.5 11.1
      vertex -81.9 -42.65 11.1
    endloop
  endfacet
  facet normal 0 0 1
    outer loop
      vertex -84.4494 -42.2462 11.1
      vertex -83.9001 -44.5 11.1
      vertex -83.1906 -42.5484 11.1
    endloop
  endfacet
  facet normal 0 0 1
    outer loop
      vertex -84.4494 -42.2462 11.1
      vertex -85.1671 -44.4003 11.1
      vertex -83.9001 -44.5 11.1
    endloop
  endfacet
  facet normal 0 0 1
    outer loop
      vertex -85.6454 -41.7508 11.1
      vertex -85.1671 -44.4003 11.1
      vertex -84.4494 -42.2462 11.1
    endloop
  endfacet
  facet normal 0 0 1
    outer loop
      vertex -85.6454 -41.7508 11.1
      vertex -86.403 -44.1036 11.1
      vertex -85.1671 -44.4003 11.1
    endloop
  endfacet
  facet normal 0 0 1
    outer loop
      vertex -87.5773 -43.6172 11.1
      vertex -85.6454 -41.7508 11.1
      vertex -86.7492 -41.0744 11.1
    endloop
  endfacet
  facet normal 0 0 1
    outer loop
      vertex -85.6454 -41.7508 11.1
      vertex -87.5773 -43.6172 11.1
      vertex -86.403 -44.1036 11.1
    endloop
  endfacet
  facet normal 0 0 1
    outer loop
      vertex -88.6611 -42.953 11.1
      vertex -86.7492 -41.0744 11.1
      vertex -87.7336 -40.2336 11.1
    endloop
  endfacet
  facet normal 0 0 1
    outer loop
      vertex -90.453 -41.1611 11.1
      vertex -87.7336 -40.2336 11.1
      vertex -88.5744 -39.2492 11.1
    endloop
  endfacet
  facet normal 0 0 1
    outer loop
      vertex -86.7492 -41.0744 11.1
      vertex -88.6611 -42.953 11.1
      vertex -87.5773 -43.6172 11.1
    endloop
  endfacet
  facet normal 0 0 1
    outer loop
      vertex -91.1171 -40.0773 11.1
      vertex -88.5744 -39.2492 11.1
      vertex -89.2508 -38.1454 11.1
    endloop
  endfacet
  facet normal 0 0 1
    outer loop
      vertex -87.7336 -40.2336 11.1
      vertex -89.6276 -42.1276 11.1
      vertex -88.6611 -42.953 11.1
    endloop
  endfacet
  facet normal 0 0 1
    outer loop
      vertex -91.6036 -38.903 11.1
      vertex -89.2508 -38.1454 11.1
      vertex -89.7462 -36.9494 11.1
    endloop
  endfacet
  facet normal -0 0 1
    outer loop
      vertex -92 -36.4001 11.1
      vertex -89.7462 -36.9494 11.1
      vertex -90.0484 -35.6906 11.1
    endloop
  endfacet
  facet normal 0 0 1
    outer loop
      vertex -92 -36.4001 11.1
      vertex -90.0484 -35.6906 11.1
      vertex -90.15 -34.4 11.1
    endloop
  endfacet
  facet normal 0 0 1
    outer loop
      vertex -87.7336 -40.2336 11.1
      vertex -90.453 -41.1611 11.1
      vertex -89.6276 -42.1276 11.1
    endloop
  endfacet
  facet normal 0 0 1
    outer loop
      vertex -90.15 34.4 11.1
      vertex -92 36.4001 11.1
      vertex -90.15 -34.4 11.1
    endloop
  endfacet
  facet normal 0 0 1
    outer loop
      vertex -92 36.4001 11.1
      vertex -89.7462 36.9494 11.1
      vertex -91.9003 37.6671 11.1
    endloop
  endfacet
  facet normal 0 0 1
    outer loop
      vertex -92 -36.4001 11.1
      vertex -90.15 -34.4 11.1
      vertex -92 36.4001 11.1
    endloop
  endfacet
  facet normal 0 0 1
    outer loop
      vertex -89.7462 36.9494 11.1
      vertex -92 36.4001 11.1
      vertex -90.0484 35.6906 11.1
    endloop
  endfacet
  facet normal 0 0 1
    outer loop
      vertex -89.7462 -36.9494 11.1
      vertex -92 -36.4001 11.1
      vertex -91.9003 -37.6671 11.1
    endloop
  endfacet
  facet normal 0 0 1
    outer loop
      vertex -90.0484 35.6906 11.1
      vertex -92 36.4001 11.1
      vertex -90.15 34.4 11.1
    endloop
  endfacet
  facet normal 0 0 1
    outer loop
      vertex -88.5744 -39.2492 11.1
      vertex -91.1171 -40.0773 11.1
      vertex -90.453 -41.1611 11.1
    endloop
  endfacet
  facet normal 0 0 1
    outer loop
      vertex -89.2508 -38.1454 11.1
      vertex -91.6036 -38.903 11.1
      vertex -91.1171 -40.0773 11.1
    endloop
  endfacet
  facet normal 0 0 1
    outer loop
      vertex -89.7462 -36.9494 11.1
      vertex -91.9003 -37.6671 11.1
      vertex -91.6036 -38.903 11.1
    endloop
  endfacet
  facet normal -1 0 0
    outer loop
      vertex -92 -36.4001 0
      vertex -92 36.4001 11.1
      vertex -92 36.4001 0
    endloop
  endfacet
  facet normal -1 -0 0
    outer loop
      vertex -92 36.4001 11.1
      vertex -92 -36.4001 0
      vertex -92 -36.4001 11.1
    endloop
  endfacet
  facet normal -0.996918 0.0784473 0
    outer loop
      vertex -92 36.4001 0
      vertex -91.9003 37.6671 11.1
      vertex -91.9003 37.6671 0
    endloop
  endfacet
  facet normal -0.996918 0.0784473 0
    outer loop
      vertex -91.9003 37.6671 11.1
      vertex -92 36.4001 0
      vertex -92 36.4001 11.1
    endloop
  endfacet
  facet normal 0.382676 -0.923883 0
    outer loop
      vertex 86.403 -44.1036 0
      vertex 87.5773 -43.6172 11.1
      vertex 86.403 -44.1036 11.1
    endloop
  endfacet
  facet normal 0.382676 -0.923883 0
    outer loop
      vertex 87.5773 -43.6172 11.1
      vertex 86.403 -44.1036 0
      vertex 87.5773 -43.6172 0
    endloop
  endfacet
  facet normal 0.0784473 -0.996918 0
    outer loop
      vertex 83.9001 -44.5 0
      vertex 85.1671 -44.4003 11.1
      vertex 83.9001 -44.5 11.1
    endloop
  endfacet
  facet normal 0.0784473 -0.996918 0
    outer loop
      vertex 85.1671 -44.4003 11.1
      vertex 83.9001 -44.5 0
      vertex 85.1671 -44.4003 0
    endloop
  endfacet
  facet normal -0.233435 -0.972372 0
    outer loop
      vertex -86.403 -44.1036 0
      vertex -85.1671 -44.4003 11.1
      vertex -86.403 -44.1036 11.1
    endloop
  endfacet
  facet normal -0.233435 -0.972372 -0
    outer loop
      vertex -85.1671 -44.4003 11.1
      vertex -86.403 -44.1036 0
      vertex -85.1671 -44.4003 0
    endloop
  endfacet
  facet normal -0.760433 0.649417 0
    outer loop
      vertex -90.453 41.1611 0
      vertex -89.6276 42.1276 11.1
      vertex -89.6276 42.1276 0
    endloop
  endfacet
  facet normal -0.760433 0.649417 0
    outer loop
      vertex -89.6276 42.1276 11.1
      vertex -90.453 41.1611 0
      vertex -90.453 41.1611 11.1
    endloop
  endfacet
  facet normal 0.522525 0.852624 -0
    outer loop
      vertex 88.6611 42.953 0
      vertex 87.5773 43.6172 11.1
      vertex 88.6611 42.953 11.1
    endloop
  endfacet
  facet normal 0.522525 0.852624 0
    outer loop
      vertex 87.5773 43.6172 11.1
      vertex 88.6611 42.953 0
      vertex 87.5773 43.6172 0
    endloop
  endfacet
  facet normal 0.0784473 0.996918 -0
    outer loop
      vertex 85.1671 44.4003 0
      vertex 83.9001 44.5 11.1
      vertex 85.1671 44.4003 11.1
    endloop
  endfacet
  facet normal 0.0784473 0.996918 0
    outer loop
      vertex 83.9001 44.5 11.1
      vertex 85.1671 44.4003 0
      vertex 83.9001 44.5 0
    endloop
  endfacet
  facet normal 0 1 -0
    outer loop
      vertex 83.9001 44.5 0
      vertex -83.9001 44.5 11.1
      vertex 83.9001 44.5 11.1
    endloop
  endfacet
  facet normal 0 1 0
    outer loop
      vertex -83.9001 44.5 11.1
      vertex 83.9001 44.5 0
      vertex -83.9001 44.5 0
    endloop
  endfacet
  facet normal -0.0784473 -0.996918 0
    outer loop
      vertex -85.1671 -44.4003 0
      vertex -83.9001 -44.5 11.1
      vertex -85.1671 -44.4003 11.1
    endloop
  endfacet
  facet normal -0.0784473 -0.996918 -0
    outer loop
      vertex -83.9001 -44.5 11.1
      vertex -85.1671 -44.4003 0
      vertex -83.9001 -44.5 0
    endloop
  endfacet
  facet normal -0.649417 -0.760433 0
    outer loop
      vertex -89.6276 -42.1276 0
      vertex -88.6611 -42.953 11.1
      vertex -89.6276 -42.1276 11.1
    endloop
  endfacet
  facet normal -0.649417 -0.760433 -0
    outer loop
      vertex -88.6611 -42.953 11.1
      vertex -89.6276 -42.1276 0
      vertex -88.6611 -42.953 0
    endloop
  endfacet
  facet normal 0 0 -1
    outer loop
      vertex 83.9001 -44.5 0
      vertex 92 -36.4001 0
      vertex 91.9003 -37.6671 0
    endloop
  endfacet
  facet normal -0 0 -1
    outer loop
      vertex 92 -36.4001 0
      vertex 83.9001 -44.5 0
      vertex 92 36.4001 0
    endloop
  endfacet
  facet normal 0 0 -1
    outer loop
      vertex 83.9001 -44.5 0
      vertex 91.9003 -37.6671 0
      vertex 91.6036 -38.903 0
    endloop
  endfacet
  facet normal 0 0 -1
    outer loop
      vertex 83.9001 44.5 0
      vertex 92 36.4001 0
      vertex 83.9001 -44.5 0
    endloop
  endfacet
  facet normal 0 0 -1
    outer loop
      vertex 83.9001 -44.5 0
      vertex 91.6036 -38.903 0
      vertex 91.1171 -40.0773 0
    endloop
  endfacet
  facet normal 0 0 -1
    outer loop
      vertex 92 36.4001 0
      vertex 83.9001 44.5 0
      vertex 91.9003 37.6671 0
    endloop
  endfacet
  facet normal 0 0 -1
    outer loop
      vertex 83.9001 -44.5 0
      vertex 91.1171 -40.0773 0
      vertex 90.453 -41.1611 0
    endloop
  endfacet
  facet normal 0 0 -1
    outer loop
      vertex 91.9003 37.6671 0
      vertex 83.9001 44.5 0
      vertex 91.6036 38.903 0
    endloop
  endfacet
  facet normal 0 0 -1
    outer loop
      vertex 83.9001 -44.5 0
      vertex 90.453 -41.1611 0
      vertex 89.6276 -42.1276 0
    endloop
  endfacet
  facet normal 0 0 -1
    outer loop
      vertex 91.6036 38.903 0
      vertex 83.9001 44.5 0
      vertex 91.1171 40.0773 0
    endloop
  endfacet
  facet normal 0 0 -1
    outer loop
      vertex 83.9001 -44.5 0
      vertex 89.6276 -42.1276 0
      vertex 88.6611 -42.953 0
    endloop
  endfacet
  facet normal 0 0 -1
    outer loop
      vertex 91.1171 40.0773 0
      vertex 83.9001 44.5 0
      vertex 90.453 41.1611 0
    endloop
  endfacet
  facet normal 0 0 -1
    outer loop
      vertex 83.9001 -44.5 0
      vertex 88.6611 -42.953 0
      vertex 87.5773 -43.6172 0
    endloop
  endfacet
  facet normal 0 0 -1
    outer loop
      vertex 90.453 41.1611 0
      vertex 83.9001 44.5 0
      vertex 89.6276 42.1276 0
    endloop
  endfacet
  facet normal 0 0 -1
    outer loop
      vertex 83.9001 -44.5 0
      vertex 87.5773 -43.6172 0
      vertex 86.403 -44.1036 0
    endloop
  endfacet
  facet normal 0 0 -1
    outer loop
      vertex 89.6276 42.1276 0
      vertex 83.9001 44.5 0
      vertex 88.6611 42.953 0
    endloop
  endfacet
  facet normal 0 0 -1
    outer loop
      vertex 83.9001 -44.5 0
      vertex 86.403 -44.1036 0
      vertex 85.1671 -44.4003 0
    endloop
  endfacet
  facet normal 0 0 -1
    outer loop
      vertex 88.6611 42.953 0
      vertex 83.9001 44.5 0
      vertex 87.5773 43.6172 0
    endloop
  endfacet
  facet normal 0 0 -1
    outer loop
      vertex 87.5773 43.6172 0
      vertex 83.9001 44.5 0
      vertex 86.403 44.1036 0
    endloop
  endfacet
  facet normal 0 0 -1
    outer loop
      vertex 86.403 44.1036 0
      vertex 83.9001 44.5 0
      vertex 85.1671 44.4003 0
    endloop
  endfacet
  facet normal 0 0 -1
    outer loop
      vertex -83.9001 -44.5 0
      vertex 83.9001 44.5 0
      vertex 83.9001 -44.5 0
    endloop
  endfacet
  facet normal 0 0 -1
    outer loop
      vertex -83.9001 -44.5 0
      vertex -83.9001 44.5 0
      vertex 83.9001 44.5 0
    endloop
  endfacet
  facet normal 0 0 -1
    outer loop
      vertex -92 -36.4001 0
      vertex -83.9001 -44.5 0
      vertex -85.1671 -44.4003 0
    endloop
  endfacet
  facet normal 0 0 -1
    outer loop
      vertex -83.9001 -44.5 0
      vertex -92 -36.4001 0
      vertex -83.9001 44.5 0
    endloop
  endfacet
  facet normal 0 0 -1
    outer loop
      vertex -92 -36.4001 0
      vertex -85.1671 -44.4003 0
      vertex -86.403 -44.1036 0
    endloop
  endfacet
  facet normal 0 0 -1
    outer loop
      vertex -92 36.4001 0
      vertex -83.9001 44.5 0
      vertex -92 -36.4001 0
    endloop
  endfacet
  facet normal 0 0 -1
    outer loop
      vertex -92 -36.4001 0
      vertex -86.403 -44.1036 0
      vertex -87.5773 -43.6172 0
    endloop
  endfacet
  facet normal 0 0 -1
    outer loop
      vertex -83.9001 44.5 0
      vertex -92 36.4001 0
      vertex -85.1671 44.4003 0
    endloop
  endfacet
  facet normal 0 0 -1
    outer loop
      vertex -92 -36.4001 0
      vertex -87.5773 -43.6172 0
      vertex -88.6611 -42.953 0
    endloop
  endfacet
  facet normal 0 0 -1
    outer loop
      vertex -85.1671 44.4003 0
      vertex -92 36.4001 0
      vertex -86.403 44.1036 0
    endloop
  endfacet
  facet normal 0 0 -1
    outer loop
      vertex -92 -36.4001 0
      vertex -88.6611 -42.953 0
      vertex -89.6276 -42.1276 0
    endloop
  endfacet
  facet normal 0 0 -1
    outer loop
      vertex -86.403 44.1036 0
      vertex -92 36.4001 0
      vertex -87.5773 43.6172 0
    endloop
  endfacet
  facet normal 0 0 -1
    outer loop
      vertex -92 -36.4001 0
      vertex -89.6276 -42.1276 0
      vertex -90.453 -41.1611 0
    endloop
  endfacet
  facet normal 0 0 -1
    outer loop
      vertex -87.5773 43.6172 0
      vertex -92 36.4001 0
      vertex -88.6611 42.953 0
    endloop
  endfacet
  facet normal 0 0 -1
    outer loop
      vertex -92 -36.4001 0
      vertex -90.453 -41.1611 0
      vertex -91.1171 -40.0773 0
    endloop
  endfacet
  facet normal 0 0 -1
    outer loop
      vertex -88.6611 42.953 0
      vertex -92 36.4001 0
      vertex -89.6276 42.1276 0
    endloop
  endfacet
  facet normal 0 0 -1
    outer loop
      vertex -92 -36.4001 0
      vertex -91.1171 -40.0773 0
      vertex -91.6036 -38.903 0
    endloop
  endfacet
  facet normal 0 0 -1
    outer loop
      vertex -89.6276 42.1276 0
      vertex -92 36.4001 0
      vertex -90.453 41.1611 0
    endloop
  endfacet
  facet normal 0 0 -1
    outer loop
      vertex -92 -36.4001 0
      vertex -91.6036 -38.903 0
      vertex -91.9003 -37.6671 0
    endloop
  endfacet
  facet normal 0 0 -1
    outer loop
      vertex -90.453 41.1611 0
      vertex -92 36.4001 0
      vertex -91.1171 40.0773 0
    endloop
  endfacet
  facet normal 0 0 -1
    outer loop
      vertex -91.1171 40.0773 0
      vertex -92 36.4001 0
      vertex -91.6036 38.903 0
    endloop
  endfacet
  facet normal 0 0 -1
    outer loop
      vertex -91.6036 38.903 0
      vertex -92 36.4001 0
      vertex -91.9003 37.6671 0
    endloop
  endfacet
  facet normal 0.233435 0.972372 -0
    outer loop
      vertex 86.403 44.1036 0
      vertex 85.1671 44.4003 11.1
      vertex 86.403 44.1036 11.1
    endloop
  endfacet
  facet normal 0.233435 0.972372 0
    outer loop
      vertex 85.1671 44.4003 11.1
      vertex 86.403 44.1036 0
      vertex 85.1671 44.4003 0
    endloop
  endfacet
  facet normal -0.382676 0.923883 0
    outer loop
      vertex -86.403 44.1036 0
      vertex -87.5773 43.6172 11.1
      vertex -86.403 44.1036 11.1
    endloop
  endfacet
  facet normal -0.382676 0.923883 0
    outer loop
      vertex -87.5773 43.6172 11.1
      vertex -86.403 44.1036 0
      vertex -87.5773 43.6172 0
    endloop
  endfacet
  facet normal 0.972372 -0.233435 0
    outer loop
      vertex 91.6036 -38.903 11.1
      vertex 91.9003 -37.6671 0
      vertex 91.9003 -37.6671 11.1
    endloop
  endfacet
  facet normal 0.972372 -0.233435 0
    outer loop
      vertex 91.9003 -37.6671 0
      vertex 91.6036 -38.903 11.1
      vertex 91.6036 -38.903 0
    endloop
  endfacet
  facet normal 0.760433 -0.649417 0
    outer loop
      vertex 89.6276 -42.1276 11.1
      vertex 90.453 -41.1611 0
      vertex 90.453 -41.1611 11.1
    endloop
  endfacet
  facet normal 0.760433 -0.649417 0
    outer loop
      vertex 90.453 -41.1611 0
      vertex 89.6276 -42.1276 11.1
      vertex 89.6276 -42.1276 0
    endloop
  endfacet
  facet normal 0.522525 -0.852624 0
    outer loop
      vertex 87.5773 -43.6172 0
      vertex 88.6611 -42.953 11.1
      vertex 87.5773 -43.6172 11.1
    endloop
  endfacet
  facet normal 0.522525 -0.852624 0
    outer loop
      vertex 88.6611 -42.953 11.1
      vertex 87.5773 -43.6172 0
      vertex 88.6611 -42.953 0
    endloop
  endfacet
  facet normal 1 -0 0
    outer loop
      vertex 92 -36.4001 11.1
      vertex 92 36.4001 0
      vertex 92 36.4001 11.1
    endloop
  endfacet
  facet normal 1 0 0
    outer loop
      vertex 92 36.4001 0
      vertex 92 -36.4001 11.1
      vertex 92 -36.4001 0
    endloop
  endfacet
  facet normal 0.649417 0.760433 -0
    outer loop
      vertex 89.6276 42.1276 0
      vertex 88.6611 42.953 11.1
      vertex 89.6276 42.1276 11.1
    endloop
  endfacet
  facet normal 0.649417 0.760433 0
    outer loop
      vertex 88.6611 42.953 11.1
      vertex 89.6276 42.1276 0
      vertex 88.6611 42.953 0
    endloop
  endfacet
  facet normal 0 -1 0
    outer loop
      vertex -83.9001 -44.5 0
      vertex 83.9001 -44.5 11.1
      vertex -83.9001 -44.5 11.1
    endloop
  endfacet
  facet normal 0 -1 -0
    outer loop
      vertex 83.9001 -44.5 11.1
      vertex -83.9001 -44.5 0
      vertex 83.9001 -44.5 0
    endloop
  endfacet
  facet normal -0.760433 -0.649417 0
    outer loop
      vertex -89.6276 -42.1276 0
      vertex -90.453 -41.1611 11.1
      vertex -90.453 -41.1611 0
    endloop
  endfacet
  facet normal -0.760433 -0.649417 0
    outer loop
      vertex -90.453 -41.1611 11.1
      vertex -89.6276 -42.1276 0
      vertex -89.6276 -42.1276 11.1
    endloop
  endfacet
  facet normal -0.852659 -0.522468 0
    outer loop
      vertex -90.453 -41.1611 0
      vertex -91.1171 -40.0773 11.1
      vertex -91.1171 -40.0773 0
    endloop
  endfacet
  facet normal -0.852659 -0.522468 0
    outer loop
      vertex -91.1171 -40.0773 11.1
      vertex -90.453 -41.1611 0
      vertex -90.453 -41.1611 11.1
    endloop
  endfacet
  facet normal -0.972372 0.233435 0
    outer loop
      vertex -91.9003 37.6671 0
      vertex -91.6036 38.903 11.1
      vertex -91.6036 38.903 0
    endloop
  endfacet
  facet normal -0.972372 0.233435 0
    outer loop
      vertex -91.6036 38.903 11.1
      vertex -91.9003 37.6671 0
      vertex -91.9003 37.6671 11.1
    endloop
  endfacet
  facet normal -0.923855 0.382743 0
    outer loop
      vertex -91.6036 38.903 0
      vertex -91.1171 40.0773 11.1
      vertex -91.1171 40.0773 0
    endloop
  endfacet
  facet normal -0.923855 0.382743 0
    outer loop
      vertex -91.1171 40.0773 11.1
      vertex -91.6036 38.903 0
      vertex -91.6036 38.903 11.1
    endloop
  endfacet
  facet normal -0.852659 0.522468 0
    outer loop
      vertex -91.1171 40.0773 0
      vertex -90.453 41.1611 11.1
      vertex -90.453 41.1611 0
    endloop
  endfacet
  facet normal -0.852659 0.522468 0
    outer loop
      vertex -90.453 41.1611 11.1
      vertex -91.1171 40.0773 0
      vertex -91.1171 40.0773 11.1
    endloop
  endfacet
  facet normal -0.649417 0.760433 0
    outer loop
      vertex -88.6611 42.953 0
      vertex -89.6276 42.1276 11.1
      vertex -88.6611 42.953 11.1
    endloop
  endfacet
  facet normal -0.649417 0.760433 0
    outer loop
      vertex -89.6276 42.1276 11.1
      vertex -88.6611 42.953 0
      vertex -89.6276 42.1276 0
    endloop
  endfacet
  facet normal -0.522525 0.852624 0
    outer loop
      vertex -87.5773 43.6172 0
      vertex -88.6611 42.953 11.1
      vertex -87.5773 43.6172 11.1
    endloop
  endfacet
  facet normal -0.522525 0.852624 0
    outer loop
      vertex -88.6611 42.953 11.1
      vertex -87.5773 43.6172 0
      vertex -88.6611 42.953 0
    endloop
  endfacet
  facet normal -0.233435 0.972372 0
    outer loop
      vertex -85.1671 44.4003 0
      vertex -86.403 44.1036 11.1
      vertex -85.1671 44.4003 11.1
    endloop
  endfacet
  facet normal -0.233435 0.972372 0
    outer loop
      vertex -86.403 44.1036 11.1
      vertex -85.1671 44.4003 0
      vertex -86.403 44.1036 0
    endloop
  endfacet
  facet normal -0.0784473 0.996918 0
    outer loop
      vertex -83.9001 44.5 0
      vertex -85.1671 44.4003 11.1
      vertex -83.9001 44.5 11.1
    endloop
  endfacet
  facet normal -0.0784473 0.996918 0
    outer loop
      vertex -85.1671 44.4003 11.1
      vertex -83.9001 44.5 0
      vertex -85.1671 44.4003 0
    endloop
  endfacet
  facet normal 0.649417 -0.760433 0
    outer loop
      vertex 88.6611 -42.953 0
      vertex 89.6276 -42.1276 11.1
      vertex 88.6611 -42.953 11.1
    endloop
  endfacet
  facet normal 0.649417 -0.760433 0
    outer loop
      vertex 89.6276 -42.1276 11.1
      vertex 88.6611 -42.953 0
      vertex 89.6276 -42.1276 0
    endloop
  endfacet
  facet normal 0.996918 -0.0784473 0
    outer loop
      vertex 91.9003 -37.6671 11.1
      vertex 92 -36.4001 0
      vertex 92 -36.4001 11.1
    endloop
  endfacet
  facet normal 0.996918 -0.0784473 0
    outer loop
      vertex 92 -36.4001 0
      vertex 91.9003 -37.6671 11.1
      vertex 91.9003 -37.6671 0
    endloop
  endfacet
  facet normal 0.923855 0.382743 0
    outer loop
      vertex 91.6036 38.903 11.1
      vertex 91.1171 40.0773 0
      vertex 91.1171 40.0773 11.1
    endloop
  endfacet
  facet normal 0.923855 0.382743 0
    outer loop
      vertex 91.1171 40.0773 0
      vertex 91.6036 38.903 11.1
      vertex 91.6036 38.903 0
    endloop
  endfacet
  facet normal 0.233435 -0.972372 0
    outer loop
      vertex 85.1671 -44.4003 0
      vertex 86.403 -44.1036 11.1
      vertex 85.1671 -44.4003 11.1
    endloop
  endfacet
  facet normal 0.233435 -0.972372 0
    outer loop
      vertex 86.403 -44.1036 11.1
      vertex 85.1671 -44.4003 0
      vertex 86.403 -44.1036 0
    endloop
  endfacet
  facet normal -0.972372 -0.233435 0
    outer loop
      vertex -91.6036 -38.903 0
      vertex -91.9003 -37.6671 11.1
      vertex -91.9003 -37.6671 0
    endloop
  endfacet
  facet normal -0.972372 -0.233435 0
    outer loop
      vertex -91.9003 -37.6671 11.1
      vertex -91.6036 -38.903 0
      vertex -91.6036 -38.903 11.1
    endloop
  endfacet
  facet normal -0.996918 -0.0784473 0
    outer loop
      vertex -91.9003 -37.6671 0
      vertex -92 -36.4001 11.1
      vertex -92 -36.4001 0
    endloop
  endfacet
  facet normal -0.996918 -0.0784473 0
    outer loop
      vertex -92 -36.4001 11.1
      vertex -91.9003 -37.6671 0
      vertex -91.9003 -37.6671 11.1
    endloop
  endfacet
  facet normal -0.923855 -0.382743 0
    outer loop
      vertex -91.1171 -40.0773 0
      vertex -91.6036 -38.903 11.1
      vertex -91.6036 -38.903 0
    endloop
  endfacet
  facet normal -0.923855 -0.382743 0
    outer loop
      vertex -91.6036 -38.903 11.1
      vertex -91.1171 -40.0773 0
      vertex -91.1171 -40.0773 11.1
    endloop
  endfacet
  facet normal 0.760433 0.649417 0
    outer loop
      vertex 90.453 41.1611 11.1
      vertex 89.6276 42.1276 0
      vertex 89.6276 42.1276 11.1
    endloop
  endfacet
  facet normal 0.760433 0.649417 0
    outer loop
      vertex 89.6276 42.1276 0
      vertex 90.453 41.1611 11.1
      vertex 90.453 41.1611 0
    endloop
  endfacet
  facet normal 0.852659 0.522468 0
    outer loop
      vertex 91.1171 40.0773 11.1
      vertex 90.453 41.1611 0
      vertex 90.453 41.1611 11.1
    endloop
  endfacet
  facet normal 0.852659 0.522468 0
    outer loop
      vertex 90.453 41.1611 0
      vertex 91.1171 40.0773 11.1
      vertex 91.1171 40.0773 0
    endloop
  endfacet
  facet normal 0.972372 0.233435 0
    outer loop
      vertex 91.9003 37.6671 11.1
      vertex 91.6036 38.903 0
      vertex 91.6036 38.903 11.1
    endloop
  endfacet
  facet normal 0.972372 0.233435 0
    outer loop
      vertex 91.6036 38.903 0
      vertex 91.9003 37.6671 11.1
      vertex 91.9003 37.6671 0
    endloop
  endfacet
  facet normal 0.996918 0.0784473 0
    outer loop
      vertex 92 36.4001 11.1
      vertex 91.9003 37.6671 0
      vertex 91.9003 37.6671 11.1
    endloop
  endfacet
  facet normal 0.996918 0.0784473 0
    outer loop
      vertex 91.9003 37.6671 0
      vertex 92 36.4001 11.1
      vertex 92 36.4001 0
    endloop
  endfacet
  facet normal 0.923855 -0.382743 0
    outer loop
      vertex 91.1171 -40.0773 11.1
      vertex 91.6036 -38.903 0
      vertex 91.6036 -38.903 11.1
    endloop
  endfacet
  facet normal 0.923855 -0.382743 0
    outer loop
      vertex 91.6036 -38.903 0
      vertex 91.1171 -40.0773 11.1
      vertex 91.1171 -40.0773 0
    endloop
  endfacet
  facet normal 0.852659 -0.522468 0
    outer loop
      vertex 90.453 -41.1611 11.1
      vertex 91.1171 -40.0773 0
      vertex 91.1171 -40.0773 11.1
    endloop
  endfacet
  facet normal 0.852659 -0.522468 0
    outer loop
      vertex 91.1171 -40.0773 0
      vertex 90.453 -41.1611 11.1
      vertex 90.453 -41.1611 0
    endloop
  endfacet
  facet normal 0 0 1
    outer loop
      vertex 81.9 42.65 8.1
      vertex 90.15 34.4 8.1
      vertex 90.0484 35.6906 8.1
    endloop
  endfacet
  facet normal 0 0 1
    outer loop
      vertex 90.15 34.4 8.1
      vertex 81.9 42.65 8.1
      vertex 90.15 -34.4 8.1
    endloop
  endfacet
  facet normal 0 0 1
    outer loop
      vertex 81.9 42.65 8.1
      vertex 90.0484 35.6906 8.1
      vertex 89.7462 36.9494 8.1
    endloop
  endfacet
  facet normal 0 0 1
    outer loop
      vertex 81.9 -42.65 8.1
      vertex 90.15 -34.4 8.1
      vertex 81.9 42.65 8.1
    endloop
  endfacet
  facet normal 0 0 1
    outer loop
      vertex 81.9 42.65 8.1
      vertex 89.7462 36.9494 8.1
      vertex 89.2508 38.1454 8.1
    endloop
  endfacet
  facet normal 0 0 1
    outer loop
      vertex 90.15 -34.4 8.1
      vertex 81.9 -42.65 8.1
      vertex 90.0484 -35.6906 8.1
    endloop
  endfacet
  facet normal 0 0 1
    outer loop
      vertex 81.9 42.65 8.1
      vertex 89.2508 38.1454 8.1
      vertex 88.5744 39.2492 8.1
    endloop
  endfacet
  facet normal 0 0 1
    outer loop
      vertex 90.0484 -35.6906 8.1
      vertex 81.9 -42.65 8.1
      vertex 89.7462 -36.9494 8.1
    endloop
  endfacet
  facet normal 0 0 1
    outer loop
      vertex 81.9 42.65 8.1
      vertex 88.5744 39.2492 8.1
      vertex 87.7336 40.2336 8.1
    endloop
  endfacet
  facet normal 0 0 1
    outer loop
      vertex 89.7462 -36.9494 8.1
      vertex 81.9 -42.65 8.1
      vertex 89.2508 -38.1454 8.1
    endloop
  endfacet
  facet normal 0 0 1
    outer loop
      vertex 81.9 42.65 8.1
      vertex 87.7336 40.2336 8.1
      vertex 86.7492 41.0744 8.1
    endloop
  endfacet
  facet normal 0 0 1
    outer loop
      vertex 89.2508 -38.1454 8.1
      vertex 81.9 -42.65 8.1
      vertex 88.5744 -39.2492 8.1
    endloop
  endfacet
  facet normal 0 0 1
    outer loop
      vertex 81.9 42.65 8.1
      vertex 86.7492 41.0744 8.1
      vertex 85.6454 41.7508 8.1
    endloop
  endfacet
  facet normal 0 0 1
    outer loop
      vertex 88.5744 -39.2492 8.1
      vertex 81.9 -42.65 8.1
      vertex 87.7336 -40.2336 8.1
    endloop
  endfacet
  facet normal 0 0 1
    outer loop
      vertex 81.9 42.65 8.1
      vertex 85.6454 41.7508 8.1
      vertex 84.4494 42.2462 8.1
    endloop
  endfacet
  facet normal 0 0 1
    outer loop
      vertex 87.7336 -40.2336 8.1
      vertex 81.9 -42.65 8.1
      vertex 86.7492 -41.0744 8.1
    endloop
  endfacet
  facet normal 0 0 1
    outer loop
      vertex 81.9 42.65 8.1
      vertex 84.4494 42.2462 8.1
      vertex 83.1906 42.5484 8.1
    endloop
  endfacet
  facet normal 0 0 1
    outer loop
      vertex 86.7492 -41.0744 8.1
      vertex 81.9 -42.65 8.1
      vertex 85.6454 -41.7508 8.1
    endloop
  endfacet
  facet normal 0 0 1
    outer loop
      vertex 85.6454 -41.7508 8.1
      vertex 81.9 -42.65 8.1
      vertex 84.4494 -42.2462 8.1
    endloop
  endfacet
  facet normal 0 0 1
    outer loop
      vertex 84.4494 -42.2462 8.1
      vertex 81.9 -42.65 8.1
      vertex 83.1906 -42.5484 8.1
    endloop
  endfacet
  facet normal -0 0 1
    outer loop
      vertex -81.9 42.65 8.1
      vertex 81.9 -42.65 8.1
      vertex 81.9 42.65 8.1
    endloop
  endfacet
  facet normal 0 0 1
    outer loop
      vertex -81.9 42.65 8.1
      vertex -81.9 -42.65 8.1
      vertex 81.9 -42.65 8.1
    endloop
  endfacet
  facet normal 0 0 1
    outer loop
      vertex -90.15 34.4 8.1
      vertex -81.9 42.65 8.1
      vertex -83.1906 42.5484 8.1
    endloop
  endfacet
  facet normal 0 0 1
    outer loop
      vertex -81.9 42.65 8.1
      vertex -90.15 34.4 8.1
      vertex -81.9 -42.65 8.1
    endloop
  endfacet
  facet normal 0 0 1
    outer loop
      vertex -90.15 34.4 8.1
      vertex -83.1906 42.5484 8.1
      vertex -84.4494 42.2462 8.1
    endloop
  endfacet
  facet normal -0 0 1
    outer loop
      vertex -90.15 -34.4 8.1
      vertex -81.9 -42.65 8.1
      vertex -90.15 34.4 8.1
    endloop
  endfacet
  facet normal 0 0 1
    outer loop
      vertex -90.15 34.4 8.1
      vertex -84.4494 42.2462 8.1
      vertex -85.6454 41.7508 8.1
    endloop
  endfacet
  facet normal 0 0 1
    outer loop
      vertex -81.9 -42.65 8.1
      vertex -90.15 -34.4 8.1
      vertex -83.1906 -42.5484 8.1
    endloop
  endfacet
  facet normal 0 0 1
    outer loop
      vertex -90.15 34.4 8.1
      vertex -85.6454 41.7508 8.1
      vertex -86.7492 41.0744 8.1
    endloop
  endfacet
  facet normal 0 0 1
    outer loop
      vertex -83.1906 -42.5484 8.1
      vertex -90.15 -34.4 8.1
      vertex -84.4494 -42.2462 8.1
    endloop
  endfacet
  facet normal 0 0 1
    outer loop
      vertex -90.15 34.4 8.1
      vertex -86.7492 41.0744 8.1
      vertex -87.7336 40.2336 8.1
    endloop
  endfacet
  facet normal 0 0 1
    outer loop
      vertex -84.4494 -42.2462 8.1
      vertex -90.15 -34.4 8.1
      vertex -85.6454 -41.7508 8.1
    endloop
  endfacet
  facet normal 0 0 1
    outer loop
      vertex -90.15 34.4 8.1
      vertex -87.7336 40.2336 8.1
      vertex -88.5744 39.2492 8.1
    endloop
  endfacet
  facet normal 0 0 1
    outer loop
      vertex -85.6454 -41.7508 8.1
      vertex -90.15 -34.4 8.1
      vertex -86.7492 -41.0744 8.1
    endloop
  endfacet
  facet normal 0 0 1
    outer loop
      vertex -90.15 34.4 8.1
      vertex -88.5744 39.2492 8.1
      vertex -89.2508 38.1454 8.1
    endloop
  endfacet
  facet normal 0 0 1
    outer loop
      vertex -86.7492 -41.0744 8.1
      vertex -90.15 -34.4 8.1
      vertex -87.7336 -40.2336 8.1
    endloop
  endfacet
  facet normal 0 0 1
    outer loop
      vertex -90.15 34.4 8.1
      vertex -89.2508 38.1454 8.1
      vertex -89.7462 36.9494 8.1
    endloop
  endfacet
  facet normal 0 0 1
    outer loop
      vertex -87.7336 -40.2336 8.1
      vertex -90.15 -34.4 8.1
      vertex -88.5744 -39.2492 8.1
    endloop
  endfacet
  facet normal 0 0 1
    outer loop
      vertex -90.15 34.4 8.1
      vertex -89.7462 36.9494 8.1
      vertex -90.0484 35.6906 8.1
    endloop
  endfacet
  facet normal 0 0 1
    outer loop
      vertex -88.5744 -39.2492 8.1
      vertex -90.15 -34.4 8.1
      vertex -89.2508 -38.1454 8.1
    endloop
  endfacet
  facet normal 0 0 1
    outer loop
      vertex -89.2508 -38.1454 8.1
      vertex -90.15 -34.4 8.1
      vertex -89.7462 -36.9494 8.1
    endloop
  endfacet
  facet normal 0 0 1
    outer loop
      vertex -89.7462 -36.9494 8.1
      vertex -90.15 -34.4 8.1
      vertex -90.0484 -35.6906 8.1
    endloop
  endfacet
  facet normal 0.0784803 0.996916 -0
    outer loop
      vertex -81.9 -42.65 8.1
      vertex -83.1906 -42.5484 11.1
      vertex -81.9 -42.65 11.1
    endloop
  endfacet
  facet normal 0.0784803 0.996916 0
    outer loop
      vertex -83.1906 -42.5484 11.1
      vertex -81.9 -42.65 8.1
      vertex -83.1906 -42.5484 8.1
    endloop
  endfacet
  facet normal 0.996916 0.0784803 0
    outer loop
      vertex -90.0484 -35.6906 11.1
      vertex -90.15 -34.4 8.1
      vertex -90.15 -34.4 11.1
    endloop
  endfacet
  facet normal 0.996916 0.0784803 0
    outer loop
      vertex -90.15 -34.4 8.1
      vertex -90.0484 -35.6906 11.1
      vertex -90.0484 -35.6906 8.1
    endloop
  endfacet
  facet normal 1 -0 0
    outer loop
      vertex -90.15 -34.4 11.1
      vertex -90.15 34.4 8.1
      vertex -90.15 34.4 11.1
    endloop
  endfacet
  facet normal 1 0 0
    outer loop
      vertex -90.15 34.4 8.1
      vertex -90.15 -34.4 11.1
      vertex -90.15 -34.4 8.1
    endloop
  endfacet
  facet normal 0.852643 0.522493 0
    outer loop
      vertex -88.5744 -39.2492 11.1
      vertex -89.2508 -38.1454 8.1
      vertex -89.2508 -38.1454 11.1
    endloop
  endfacet
  facet normal 0.852643 0.522493 0
    outer loop
      vertex -89.2508 -38.1454 8.1
      vertex -88.5744 -39.2492 11.1
      vertex -88.5744 -39.2492 8.1
    endloop
  endfacet
  facet normal 0.649467 0.76039 -0
    outer loop
      vertex -86.7492 -41.0744 8.1
      vertex -87.7336 -40.2336 11.1
      vertex -86.7492 -41.0744 11.1
    endloop
  endfacet
  facet normal 0.649467 0.76039 0
    outer loop
      vertex -87.7336 -40.2336 11.1
      vertex -86.7492 -41.0744 8.1
      vertex -87.7336 -40.2336 8.1
    endloop
  endfacet
  facet normal 0.382684 0.923879 -0
    outer loop
      vertex -84.4494 -42.2462 8.1
      vertex -85.6454 -41.7508 11.1
      vertex -84.4494 -42.2462 11.1
    endloop
  endfacet
  facet normal 0.382684 0.923879 0
    outer loop
      vertex -85.6454 -41.7508 11.1
      vertex -84.4494 -42.2462 8.1
      vertex -85.6454 -41.7508 8.1
    endloop
  endfacet
  facet normal 0.233437 0.972372 -0
    outer loop
      vertex -83.1906 -42.5484 8.1
      vertex -84.4494 -42.2462 11.1
      vertex -83.1906 -42.5484 11.1
    endloop
  endfacet
  facet normal 0.233437 0.972372 0
    outer loop
      vertex -84.4494 -42.2462 11.1
      vertex -83.1906 -42.5484 8.1
      vertex -84.4494 -42.2462 8.1
    endloop
  endfacet
  facet normal -1 0 0
    outer loop
      vertex 90.15 -34.4 8.1
      vertex 90.15 34.4 11.1
      vertex 90.15 34.4 8.1
    endloop
  endfacet
  facet normal -1 -0 0
    outer loop
      vertex 90.15 34.4 11.1
      vertex 90.15 -34.4 8.1
      vertex 90.15 -34.4 11.1
    endloop
  endfacet
  facet normal 0.923879 0.382684 0
    outer loop
      vertex -89.2508 -38.1454 11.1
      vertex -89.7462 -36.9494 8.1
      vertex -89.7462 -36.9494 11.1
    endloop
  endfacet
  facet normal 0.923879 0.382684 0
    outer loop
      vertex -89.7462 -36.9494 8.1
      vertex -89.2508 -38.1454 11.1
      vertex -89.2508 -38.1454 8.1
    endloop
  endfacet
  facet normal 0.972372 0.233437 0
    outer loop
      vertex -89.7462 -36.9494 11.1
      vertex -90.0484 -35.6906 8.1
      vertex -90.0484 -35.6906 11.1
    endloop
  endfacet
  facet normal 0.972372 0.233437 0
    outer loop
      vertex -90.0484 -35.6906 8.1
      vertex -89.7462 -36.9494 11.1
      vertex -89.7462 -36.9494 8.1
    endloop
  endfacet
  facet normal 0.76039 0.649467 0
    outer loop
      vertex -87.7336 -40.2336 11.1
      vertex -88.5744 -39.2492 8.1
      vertex -88.5744 -39.2492 11.1
    endloop
  endfacet
  facet normal 0.76039 0.649467 0
    outer loop
      vertex -88.5744 -39.2492 8.1
      vertex -87.7336 -40.2336 11.1
      vertex -87.7336 -40.2336 8.1
    endloop
  endfacet
  facet normal 0.522493 0.852643 -0
    outer loop
      vertex -85.6454 -41.7508 8.1
      vertex -86.7492 -41.0744 11.1
      vertex -85.6454 -41.7508 11.1
    endloop
  endfacet
  facet normal 0.522493 0.852643 0
    outer loop
      vertex -86.7492 -41.0744 11.1
      vertex -85.6454 -41.7508 8.1
      vertex -86.7492 -41.0744 8.1
    endloop
  endfacet
  facet normal -0.0784803 0.996916 0
    outer loop
      vertex 83.1906 -42.5484 8.1
      vertex 81.9 -42.65 11.1
      vertex 83.1906 -42.5484 11.1
    endloop
  endfacet
  facet normal -0.0784803 0.996916 0
    outer loop
      vertex 81.9 -42.65 11.1
      vertex 83.1906 -42.5484 8.1
      vertex 81.9 -42.65 8.1
    endloop
  endfacet
  facet normal -0.382684 0.923879 0
    outer loop
      vertex 85.6454 -41.7508 8.1
      vertex 84.4494 -42.2462 11.1
      vertex 85.6454 -41.7508 11.1
    endloop
  endfacet
  facet normal -0.382684 0.923879 0
    outer loop
      vertex 84.4494 -42.2462 11.1
      vertex 85.6454 -41.7508 8.1
      vertex 84.4494 -42.2462 8.1
    endloop
  endfacet
  facet normal -0.233437 0.972372 0
    outer loop
      vertex 84.4494 -42.2462 8.1
      vertex 83.1906 -42.5484 11.1
      vertex 84.4494 -42.2462 11.1
    endloop
  endfacet
  facet normal -0.233437 0.972372 0
    outer loop
      vertex 83.1906 -42.5484 11.1
      vertex 84.4494 -42.2462 8.1
      vertex 83.1906 -42.5484 8.1
    endloop
  endfacet
  facet normal 0 1 -0
    outer loop
      vertex 81.9 -42.65 8.1
      vertex -81.9 -42.65 11.1
      vertex 81.9 -42.65 11.1
    endloop
  endfacet
  facet normal 0 1 0
    outer loop
      vertex -81.9 -42.65 11.1
      vertex 81.9 -42.65 8.1
      vertex -81.9 -42.65 8.1
    endloop
  endfacet
  facet normal 0 -1 0
    outer loop
      vertex -81.9 42.65 8.1
      vertex 81.9 42.65 11.1
      vertex -81.9 42.65 11.1
    endloop
  endfacet
  facet normal 0 -1 -0
    outer loop
      vertex 81.9 42.65 11.1
      vertex -81.9 42.65 8.1
      vertex 81.9 42.65 8.1
    endloop
  endfacet
  facet normal -0.0784803 -0.996916 0
    outer loop
      vertex 81.9 42.65 8.1
      vertex 83.1906 42.5484 11.1
      vertex 81.9 42.65 11.1
    endloop
  endfacet
  facet normal -0.0784803 -0.996916 -0
    outer loop
      vertex 83.1906 42.5484 11.1
      vertex 81.9 42.65 8.1
      vertex 83.1906 42.5484 8.1
    endloop
  endfacet
  facet normal -0.76039 -0.649467 0
    outer loop
      vertex 88.5744 39.2492 8.1
      vertex 87.7336 40.2336 11.1
      vertex 87.7336 40.2336 8.1
    endloop
  endfacet
  facet normal -0.76039 -0.649467 0
    outer loop
      vertex 87.7336 40.2336 11.1
      vertex 88.5744 39.2492 8.1
      vertex 88.5744 39.2492 11.1
    endloop
  endfacet
  facet normal 0.76039 -0.649467 0
    outer loop
      vertex -88.5744 39.2492 11.1
      vertex -87.7336 40.2336 8.1
      vertex -87.7336 40.2336 11.1
    endloop
  endfacet
  facet normal 0.76039 -0.649467 0
    outer loop
      vertex -87.7336 40.2336 8.1
      vertex -88.5744 39.2492 11.1
      vertex -88.5744 39.2492 8.1
    endloop
  endfacet
  facet normal 0.996916 -0.0784803 0
    outer loop
      vertex -90.15 34.4 11.1
      vertex -90.0484 35.6906 8.1
      vertex -90.0484 35.6906 11.1
    endloop
  endfacet
  facet normal 0.996916 -0.0784803 0
    outer loop
      vertex -90.0484 35.6906 8.1
      vertex -90.15 34.4 11.1
      vertex -90.15 34.4 8.1
    endloop
  endfacet
  facet normal 0.382684 -0.923879 0
    outer loop
      vertex -85.6454 41.7508 8.1
      vertex -84.4494 42.2462 11.1
      vertex -85.6454 41.7508 11.1
    endloop
  endfacet
  facet normal 0.382684 -0.923879 0
    outer loop
      vertex -84.4494 42.2462 11.1
      vertex -85.6454 41.7508 8.1
      vertex -84.4494 42.2462 8.1
    endloop
  endfacet
  facet normal -0.233437 -0.972372 0
    outer loop
      vertex 83.1906 42.5484 8.1
      vertex 84.4494 42.2462 11.1
      vertex 83.1906 42.5484 11.1
    endloop
  endfacet
  facet normal -0.233437 -0.972372 -0
    outer loop
      vertex 84.4494 42.2462 11.1
      vertex 83.1906 42.5484 8.1
      vertex 84.4494 42.2462 8.1
    endloop
  endfacet
  facet normal -0.382684 -0.923879 0
    outer loop
      vertex 84.4494 42.2462 8.1
      vertex 85.6454 41.7508 11.1
      vertex 84.4494 42.2462 11.1
    endloop
  endfacet
  facet normal -0.382684 -0.923879 -0
    outer loop
      vertex 85.6454 41.7508 11.1
      vertex 84.4494 42.2462 8.1
      vertex 85.6454 41.7508 8.1
    endloop
  endfacet
  facet normal -0.76039 0.649467 0
    outer loop
      vertex 87.7336 -40.2336 8.1
      vertex 88.5744 -39.2492 11.1
      vertex 88.5744 -39.2492 8.1
    endloop
  endfacet
  facet normal -0.76039 0.649467 0
    outer loop
      vertex 88.5744 -39.2492 11.1
      vertex 87.7336 -40.2336 8.1
      vertex 87.7336 -40.2336 11.1
    endloop
  endfacet
  facet normal -0.996916 0.0784803 0
    outer loop
      vertex 90.0484 -35.6906 8.1
      vertex 90.15 -34.4 11.1
      vertex 90.15 -34.4 8.1
    endloop
  endfacet
  facet normal -0.996916 0.0784803 0
    outer loop
      vertex 90.15 -34.4 11.1
      vertex 90.0484 -35.6906 8.1
      vertex 90.0484 -35.6906 11.1
    endloop
  endfacet
  facet normal -0.996916 -0.0784803 0
    outer loop
      vertex 90.15 34.4 8.1
      vertex 90.0484 35.6906 11.1
      vertex 90.0484 35.6906 8.1
    endloop
  endfacet
  facet normal -0.996916 -0.0784803 0
    outer loop
      vertex 90.0484 35.6906 11.1
      vertex 90.15 34.4 8.1
      vertex 90.15 34.4 11.1
    endloop
  endfacet
  facet normal 0.649467 -0.76039 0
    outer loop
      vertex -87.7336 40.2336 8.1
      vertex -86.7492 41.0744 11.1
      vertex -87.7336 40.2336 11.1
    endloop
  endfacet
  facet normal 0.649467 -0.76039 0
    outer loop
      vertex -86.7492 41.0744 11.1
      vertex -87.7336 40.2336 8.1
      vertex -86.7492 41.0744 8.1
    endloop
  endfacet
  facet normal 0.522493 -0.852643 0
    outer loop
      vertex -86.7492 41.0744 8.1
      vertex -85.6454 41.7508 11.1
      vertex -86.7492 41.0744 11.1
    endloop
  endfacet
  facet normal 0.522493 -0.852643 0
    outer loop
      vertex -85.6454 41.7508 11.1
      vertex -86.7492 41.0744 8.1
      vertex -85.6454 41.7508 8.1
    endloop
  endfacet
  facet normal 0.923879 -0.382684 0
    outer loop
      vertex -89.7462 36.9494 11.1
      vertex -89.2508 38.1454 8.1
      vertex -89.2508 38.1454 11.1
    endloop
  endfacet
  facet normal 0.923879 -0.382684 0
    outer loop
      vertex -89.2508 38.1454 8.1
      vertex -89.7462 36.9494 11.1
      vertex -89.7462 36.9494 8.1
    endloop
  endfacet
  facet normal 0.852643 -0.522493 0
    outer loop
      vertex -89.2508 38.1454 11.1
      vertex -88.5744 39.2492 8.1
      vertex -88.5744 39.2492 11.1
    endloop
  endfacet
  facet normal 0.852643 -0.522493 0
    outer loop
      vertex -88.5744 39.2492 8.1
      vertex -89.2508 38.1454 11.1
      vertex -89.2508 38.1454 8.1
    endloop
  endfacet
  facet normal 0.972372 -0.233437 0
    outer loop
      vertex -90.0484 35.6906 11.1
      vertex -89.7462 36.9494 8.1
      vertex -89.7462 36.9494 11.1
    endloop
  endfacet
  facet normal 0.972372 -0.233437 0
    outer loop
      vertex -89.7462 36.9494 8.1
      vertex -90.0484 35.6906 11.1
      vertex -90.0484 35.6906 8.1
    endloop
  endfacet
  facet normal -0.649467 -0.76039 0
    outer loop
      vertex 86.7492 41.0744 8.1
      vertex 87.7336 40.2336 11.1
      vertex 86.7492 41.0744 11.1
    endloop
  endfacet
  facet normal -0.649467 -0.76039 -0
    outer loop
      vertex 87.7336 40.2336 11.1
      vertex 86.7492 41.0744 8.1
      vertex 87.7336 40.2336 8.1
    endloop
  endfacet
  facet normal -0.852643 -0.522493 0
    outer loop
      vertex 89.2508 38.1454 8.1
      vertex 88.5744 39.2492 11.1
      vertex 88.5744 39.2492 8.1
    endloop
  endfacet
  facet normal -0.852643 -0.522493 0
    outer loop
      vertex 88.5744 39.2492 11.1
      vertex 89.2508 38.1454 8.1
      vertex 89.2508 38.1454 11.1
    endloop
  endfacet
  facet normal -0.923879 -0.382684 0
    outer loop
      vertex 89.7462 36.9494 8.1
      vertex 89.2508 38.1454 11.1
      vertex 89.2508 38.1454 8.1
    endloop
  endfacet
  facet normal -0.923879 -0.382684 0
    outer loop
      vertex 89.2508 38.1454 11.1
      vertex 89.7462 36.9494 8.1
      vertex 89.7462 36.9494 11.1
    endloop
  endfacet
  facet normal -0.522493 0.852643 0
    outer loop
      vertex 86.7492 -41.0744 8.1
      vertex 85.6454 -41.7508 11.1
      vertex 86.7492 -41.0744 11.1
    endloop
  endfacet
  facet normal -0.522493 0.852643 0
    outer loop
      vertex 85.6454 -41.7508 11.1
      vertex 86.7492 -41.0744 8.1
      vertex 85.6454 -41.7508 8.1
    endloop
  endfacet
  facet normal -0.649467 0.76039 0
    outer loop
      vertex 87.7336 -40.2336 8.1
      vertex 86.7492 -41.0744 11.1
      vertex 87.7336 -40.2336 11.1
    endloop
  endfacet
  facet normal -0.649467 0.76039 0
    outer loop
      vertex 86.7492 -41.0744 11.1
      vertex 87.7336 -40.2336 8.1
      vertex 86.7492 -41.0744 8.1
    endloop
  endfacet
  facet normal -0.972372 0.233437 0
    outer loop
      vertex 89.7462 -36.9494 8.1
      vertex 90.0484 -35.6906 11.1
      vertex 90.0484 -35.6906 8.1
    endloop
  endfacet
  facet normal -0.972372 0.233437 0
    outer loop
      vertex 90.0484 -35.6906 11.1
      vertex 89.7462 -36.9494 8.1
      vertex 89.7462 -36.9494 11.1
    endloop
  endfacet
  facet normal -0.923879 0.382684 0
    outer loop
      vertex 89.2508 -38.1454 8.1
      vertex 89.7462 -36.9494 11.1
      vertex 89.7462 -36.9494 8.1
    endloop
  endfacet
  facet normal -0.923879 0.382684 0
    outer loop
      vertex 89.7462 -36.9494 11.1
      vertex 89.2508 -38.1454 8.1
      vertex 89.2508 -38.1454 11.1
    endloop
  endfacet
  facet normal -0.852643 0.522493 0
    outer loop
      vertex 88.5744 -39.2492 8.1
      vertex 89.2508 -38.1454 11.1
      vertex 89.2508 -38.1454 8.1
    endloop
  endfacet
  facet normal -0.852643 0.522493 0
    outer loop
      vertex 89.2508 -38.1454 11.1
      vertex 88.5744 -39.2492 8.1
      vertex 88.5744 -39.2492 11.1
    endloop
  endfacet
  facet normal 0.233437 -0.972372 0
    outer loop
      vertex -84.4494 42.2462 8.1
      vertex -83.1906 42.5484 11.1
      vertex -84.4494 42.2462 11.1
    endloop
  endfacet
  facet normal 0.233437 -0.972372 0
    outer loop
      vertex -83.1906 42.5484 11.1
      vertex -84.4494 42.2462 8.1
      vertex -83.1906 42.5484 8.1
    endloop
  endfacet
  facet normal 0.0784803 -0.996916 0
    outer loop
      vertex -83.1906 42.5484 8.1
      vertex -81.9 42.65 11.1
      vertex -83.1906 42.5484 11.1
    endloop
  endfacet
  facet normal 0.0784803 -0.996916 0
    outer loop
      vertex -81.9 42.65 11.1
      vertex -83.1906 42.5484 8.1
      vertex -81.9 42.65 8.1
    endloop
  endfacet
  facet normal -0.522493 -0.852643 0
    outer loop
      vertex 85.6454 41.7508 8.1
      vertex 86.7492 41.0744 11.1
      vertex 85.6454 41.7508 11.1
    endloop
  endfacet
  facet normal -0.522493 -0.852643 -0
    outer loop
      vertex 86.7492 41.0744 11.1
      vertex 85.6454 41.7508 8.1
      vertex 86.7492 41.0744 8.1
    endloop
  endfacet
  facet normal -0.972372 -0.233437 0
    outer loop
      vertex 90.0484 35.6906 8.1
      vertex 89.7462 36.9494 11.1
      vertex 89.7462 36.9494 8.1
    endloop
  endfacet
  facet normal -0.972372 -0.233437 0
    outer loop
      vertex 89.7462 36.9494 11.1
      vertex 90.0484 35.6906 8.1
      vertex 90.0484 35.6906 11.1
    endloop
  endfacet
endsolid OpenSCAD_Model
